<svg width="500" height="35" viewBox="0 0 500 35" fill="none" xmlns="http://www.w3.org/2000/svg">
<path d="M492.393 7.33584C491.389 5.52234 490.515 3.94718 489.502 2.77618C487.122 0.019654 481.454 -0.125426 479.654 0.0507427H20.3465C18.5464 -0.115063 12.8777 0.019654 10.4978 2.77618C9.48522 3.94718 8.61112 5.52234 7.60721 7.33584C5.84172 10.5172 3.76466 14.2686 0 17.5018C3.76466 20.7454 5.84172 24.4967 7.60721 27.6678C8.61112 29.4813 9.48522 31.0564 10.4978 32.2275C12.8777 34.984 18.5464 35.1187 20.3465 34.9529H479.654C481.454 35.1187 487.122 34.984 489.502 32.2275C490.515 31.0564 491.389 29.4813 492.393 27.6678C494.158 24.4864 496.235 20.735 500 17.5018C496.235 14.2582 494.158 10.5069 492.393 7.33584Z" fill="#B01C1A"/>
</svg>
