<svg width="192" height="35" viewBox="0 0 192 35" fill="none" xmlns="http://www.w3.org/2000/svg">
<path id="Vector" d="M183.814 7.33584C182.733 5.52234 181.793 3.94718 180.703 2.77618C178.142 0.019654 172.042 -0.125426 170.105 0.0507427H21.8952C19.9581 -0.115063 13.858 0.019654 11.2969 2.77618C10.2072 3.94718 9.26659 5.52234 8.18626 7.33584C6.28638 10.5172 4.05122 14.2686 0 17.5018C4.05122 20.7454 6.28638 24.4968 8.18626 27.6678C9.26659 29.4813 10.2072 31.0564 11.2969 32.2275C13.858 34.984 19.9581 35.1187 21.8952 34.9529H170.105C172.042 35.1187 178.142 34.984 180.703 32.2275C181.793 31.0564 182.733 29.4813 183.814 27.6678C185.714 24.4864 187.949 20.735 192 17.5018C187.949 14.2582 185.714 10.5069 183.814 7.33584Z" fill="#F9F5EC"/>
</svg>
