<svg width="218" height="35" viewBox="0 0 218 35" fill="none" xmlns="http://www.w3.org/2000/svg">
<path d="M208.705 7.33584C207.479 5.52234 206.411 3.94718 205.173 2.77618C202.265 0.0196539 195.339 -0.125426 193.14 0.0507427H24.8602C22.6607 -0.115063 15.7346 0.0196539 12.8266 2.77618C11.5894 3.94718 10.5214 5.52234 9.29482 7.33584C7.13766 10.5172 4.59983 14.2686 0 17.5018C4.59983 20.7454 7.13766 24.4968 9.29482 27.6678C10.5214 29.4813 11.5894 31.0564 12.8266 32.2275C15.7346 34.984 22.6607 35.1187 24.8602 34.9529H193.14C195.339 35.1187 202.265 34.984 205.173 32.2275C206.411 31.0564 207.479 29.4813 208.705 27.6678C210.862 24.4864 213.4 20.735 218 17.5018C213.4 14.2582 210.862 10.5069 208.705 7.33584Z" fill="#F9F5EC"/>
</svg>
