<svg width="74" height="20" viewBox="0 0 74 20" fill="none" xmlns="http://www.w3.org/2000/svg">
<path d="M68.6704 4.19191C67.9671 3.15562 67.3547 2.25553 66.6453 1.58639C64.9779 0.0112308 61.0065 -0.071672 59.7453 0.0289958H14.2547C12.9936 -0.0657504 9.02212 0.0112308 7.35472 1.58639C6.64532 2.25553 6.03294 3.15562 5.3296 4.19191C4.0927 6.00985 2.63751 8.15348 0 10.001C2.63751 11.8545 4.0927 13.9981 5.3296 15.8102C6.03294 16.8465 6.64532 17.7465 7.35472 18.4157C9.02212 19.9908 12.9936 20.0678 14.2547 19.9731H59.7453C61.0065 20.0678 64.9779 19.9908 66.6453 18.4157C67.3547 17.7465 67.9671 16.8465 68.6704 15.8102C69.9073 13.9922 71.3625 11.8486 74 10.001C71.3625 8.14756 69.9073 6.00393 68.6704 4.19191Z" fill="#F9F5EC"/>
<path d="M26.8383 13.12C26.405 13.12 25.9783 13.0433 25.5583 12.89C25.1383 12.73 24.7617 12.49 24.4283 12.17L25.2083 11.21C25.4417 11.41 25.705 11.5667 25.9983 11.68C26.2983 11.7933 26.5917 11.85 26.8783 11.85C27.185 11.85 27.4117 11.7933 27.5583 11.68C27.7117 11.5667 27.7883 11.4133 27.7883 11.22C27.7883 11.08 27.7483 10.97 27.6683 10.89C27.595 10.8033 27.4883 10.7267 27.3483 10.66C27.2083 10.5933 27.0417 10.52 26.8483 10.44L25.9983 10.09C25.7783 9.99 25.565 9.86333 25.3583 9.71C25.1583 9.55 24.995 9.35667 24.8683 9.13C24.7483 8.89667 24.6883 8.62 24.6883 8.3C24.6883 7.94 24.785 7.61667 24.9783 7.33C25.1783 7.03667 25.4517 6.80333 25.7983 6.63C26.1517 6.45 26.555 6.36 27.0083 6.36C27.4017 6.36 27.7817 6.43 28.1483 6.57C28.515 6.71 28.835 6.91333 29.1083 7.18L28.3283 8.13C28.115 7.97 27.895 7.84667 27.6683 7.76C27.4483 7.67333 27.2283 7.63 27.0083 7.63C26.755 7.63 26.5517 7.68333 26.3983 7.79C26.2517 7.89 26.1783 8.03333 26.1783 8.22C26.1783 8.34667 26.2217 8.45667 26.3083 8.55C26.395 8.63667 26.515 8.71333 26.6683 8.78C26.8217 8.84 26.9883 8.91 27.1683 8.99L28.0083 9.33C28.275 9.43667 28.5017 9.57 28.6883 9.73C28.8817 9.89 29.0317 10.0833 29.1383 10.31C29.245 10.53 29.2983 10.7933 29.2983 11.1C29.2983 11.46 29.2017 11.7933 29.0083 12.1C28.815 12.4067 28.535 12.6533 28.1683 12.84C27.8017 13.0267 27.3583 13.12 26.8383 13.12ZM30.875 13L32.915 6.48H34.675L36.725 13H35.165L34.315 9.7C34.2216 9.37333 34.1316 9.02667 34.045 8.66C33.9583 8.29333 33.8716 7.94 33.785 7.6H33.745C33.6716 7.94 33.5916 8.29333 33.505 8.66C33.4183 9.02667 33.3283 9.37333 33.235 9.7L32.375 13H30.875ZM32.215 11.45V10.3H35.355V11.45H32.215ZM38.7374 13V6.48H40.2074V11.76H42.7874V13H38.7374ZM45.2132 13V6.48H49.2932V7.72H46.6832V9.03H48.9032V10.26H46.6832V11.76H49.3932V13H45.2132Z" fill="#B01C1A"/>
</svg>
