<svg width="57" height="15" viewBox="0 0 57 15" fill="none" xmlns="http://www.w3.org/2000/svg">
<path d="M52.8948 3.14393C52.353 2.36672 51.8813 1.69165 51.3349 1.18979C50.0505 0.00842312 46.9915 -0.053754 46.02 0.0217469H10.98C10.0085 -0.0493128 6.94947 0.00842312 5.66513 1.18979C5.1187 1.69165 4.64699 2.36672 4.10523 3.14393C3.15248 4.50739 2.0316 6.11511 0 7.50078C2.0316 8.89088 3.15248 10.4986 4.10523 11.8576C4.64699 12.6348 5.1187 13.3099 5.66513 13.8118C6.94947 14.9931 10.0085 15.0509 10.98 14.9798H46.02C46.9915 15.0509 50.0505 14.9931 51.3349 13.8118C51.8813 13.3099 52.353 12.6348 52.8948 11.8576C53.8475 10.4942 54.9684 8.88644 57 7.50078C54.9684 6.11067 53.8475 4.50295 52.8948 3.14393Z" fill="#F9F5EC"/>
<path d="M19.9095 10.608C19.5195 10.608 19.1355 10.539 18.7575 10.401C18.3795 10.257 18.0405 10.041 17.7405 9.753L18.4425 8.889C18.6525 9.069 18.8895 9.21 19.1535 9.312C19.4235 9.414 19.6875 9.465 19.9455 9.465C20.2215 9.465 20.4255 9.414 20.5575 9.312C20.6955 9.21 20.7645 9.072 20.7645 8.898C20.7645 8.772 20.7285 8.673 20.6565 8.601C20.5905 8.523 20.4945 8.454 20.3685 8.394C20.2425 8.334 20.0925 8.268 19.9185 8.196L19.1535 7.881C18.9555 7.791 18.7635 7.677 18.5775 7.539C18.3975 7.395 18.2505 7.221 18.1365 7.017C18.0285 6.807 17.9745 6.558 17.9745 6.27C17.9745 5.946 18.0615 5.655 18.2355 5.397C18.4155 5.133 18.6615 4.923 18.9735 4.767C19.2915 4.605 19.6545 4.524 20.0625 4.524C20.4165 4.524 20.7585 4.587 21.0885 4.713C21.4185 4.839 21.7065 5.022 21.9525 5.262L21.2505 6.117C21.0585 5.973 20.8605 5.862 20.6565 5.784C20.4585 5.706 20.2605 5.667 20.0625 5.667C19.8345 5.667 19.6515 5.715 19.5135 5.811C19.3815 5.901 19.3155 6.03 19.3155 6.198C19.3155 6.312 19.3545 6.411 19.4325 6.495C19.5105 6.573 19.6185 6.642 19.7565 6.702C19.8945 6.756 20.0445 6.819 20.2065 6.891L20.9625 7.197C21.2025 7.293 21.4065 7.413 21.5745 7.557C21.7485 7.701 21.8835 7.875 21.9795 8.079C22.0755 8.277 22.1235 8.514 22.1235 8.79C22.1235 9.114 22.0365 9.414 21.8625 9.69C21.6885 9.966 21.4365 10.188 21.1065 10.356C20.7765 10.524 20.3775 10.608 19.9095 10.608ZM23.1725 10.5L25.0085 4.632H26.5925L28.4375 10.5H27.0335L26.2685 7.53C26.1845 7.236 26.1035 6.924 26.0255 6.594C25.9475 6.264 25.8695 5.946 25.7915 5.64H25.7555C25.6895 5.946 25.6175 6.264 25.5395 6.594C25.4615 6.924 25.3805 7.236 25.2965 7.53L24.5225 10.5H23.1725ZM24.3785 9.105V8.07H27.2045V9.105H24.3785ZM29.8786 10.5V4.632H31.2016V9.384H33.5236V10.5H29.8786ZM35.3368 10.5V4.632H39.0088V5.748H36.6598V6.927H38.6578V8.034H36.6598V9.384H39.0988V10.5H35.3368Z" fill="#B01C1A"/>
</svg>
