<svg width="298" height="35" viewBox="0 0 298 35" fill="none" xmlns="http://www.w3.org/2000/svg">
<path d="M288.705 7.33584C287.479 5.52234 286.411 3.94718 285.173 2.77618C282.265 0.019654 275.339 -0.125426 273.14 0.0507427H24.8602C22.6607 -0.115063 15.7346 0.019654 12.8266 2.77618C11.5894 3.94718 10.5214 5.52234 9.29482 7.33584C7.13766 10.5172 4.59983 14.2686 0 17.5018C4.59983 20.7454 7.13766 24.4968 9.29482 27.6678C10.5214 29.4813 11.5894 31.0564 12.8266 32.2275C15.7346 34.984 22.6607 35.1187 24.8602 34.9529H273.14C275.339 35.1187 282.265 34.984 285.173 32.2275C286.411 31.0564 287.479 29.4813 288.705 27.6678C290.862 24.4864 293.4 20.735 298 17.5018C293.4 14.2582 290.862 10.5069 288.705 7.33584Z" fill="#B01C1A"/>
</svg>
