<svg width="84" height="20" viewBox="0 0 84 20" fill="none" xmlns="http://www.w3.org/2000/svg">
<path d="M78.6704 4.19191C77.9671 3.15562 77.3547 2.25553 76.6453 1.58639C74.9779 0.0112308 71.0065 -0.071672 69.7453 0.0289958H14.2547C12.9935 -0.0657504 9.02212 0.0112308 7.35472 1.58639C6.64532 2.25553 6.03294 3.15562 5.3296 4.19191C4.09269 6.00985 2.63751 8.15348 0 10.001C2.63751 11.8545 4.09269 13.9981 5.3296 15.8102C6.03294 16.8465 6.64532 17.7465 7.35472 18.4157C9.02212 19.9908 12.9935 20.0678 14.2547 19.9731H69.7453C71.0065 20.0678 74.9779 19.9908 76.6453 18.4157C77.3547 17.7465 77.9671 16.8465 78.6704 15.8102C79.9073 13.9922 81.3625 11.8486 84 10.001C81.3625 8.14756 79.9073 6.00393 78.6704 4.19191Z" fill="#F9F5EC"/>
<path d="M18.2295 13.12C17.7962 13.12 17.3695 13.0433 16.9495 12.89C16.5295 12.73 16.1529 12.49 15.8195 12.17L16.5995 11.21C16.8329 11.41 17.0962 11.5667 17.3895 11.68C17.6895 11.7933 17.9829 11.85 18.2695 11.85C18.5762 11.85 18.8029 11.7933 18.9495 11.68C19.1029 11.5667 19.1795 11.4133 19.1795 11.22C19.1795 11.08 19.1395 10.97 19.0595 10.89C18.9862 10.8033 18.8795 10.7267 18.7395 10.66C18.5995 10.5933 18.4329 10.52 18.2395 10.44L17.3895 10.09C17.1695 9.99 16.9562 9.86333 16.7495 9.71C16.5495 9.55 16.3862 9.35667 16.2595 9.13C16.1395 8.89667 16.0795 8.62 16.0795 8.3C16.0795 7.94 16.1762 7.61667 16.3695 7.33C16.5695 7.03667 16.8429 6.80333 17.1895 6.63C17.5429 6.45 17.9462 6.36 18.3995 6.36C18.7929 6.36 19.1729 6.43 19.5395 6.57C19.9062 6.71 20.2262 6.91333 20.4995 7.18L19.7195 8.13C19.5062 7.97 19.2862 7.84667 19.0595 7.76C18.8395 7.67333 18.6195 7.63 18.3995 7.63C18.1462 7.63 17.9429 7.68333 17.7895 7.79C17.6429 7.89 17.5695 8.03333 17.5695 8.22C17.5695 8.34667 17.6129 8.45667 17.6995 8.55C17.7862 8.63667 17.9062 8.71333 18.0595 8.78C18.2129 8.84 18.3795 8.91 18.5595 8.99L19.3995 9.33C19.6662 9.43667 19.8929 9.57 20.0795 9.73C20.2729 9.89 20.4229 10.0833 20.5295 10.31C20.6362 10.53 20.6895 10.7933 20.6895 11.1C20.6895 11.46 20.5929 11.7933 20.3995 12.1C20.2062 12.4067 19.9262 12.6533 19.5595 12.84C19.1929 13.0267 18.7495 13.12 18.2295 13.12ZM25.7462 13.12C25.1595 13.12 24.6428 12.9833 24.1962 12.71C23.7562 12.4367 23.4095 12.0467 23.1562 11.54C22.9095 11.0333 22.7862 10.4233 22.7862 9.71C22.7862 9.00333 22.9095 8.4 23.1562 7.9C23.4095 7.4 23.7562 7.02 24.1962 6.76C24.6428 6.49333 25.1595 6.36 25.7462 6.36C26.3328 6.36 26.8495 6.49333 27.2962 6.76C27.7428 7.02 28.0895 7.4 28.3362 7.9C28.5828 8.4 28.7062 9.00333 28.7062 9.71C28.7062 10.4233 28.5828 11.0333 28.3362 11.54C28.0895 12.0467 27.7428 12.4367 27.2962 12.71C26.8495 12.9833 26.3328 13.12 25.7462 13.12ZM25.7462 11.85C26.0462 11.85 26.3028 11.7633 26.5162 11.59C26.7362 11.41 26.9028 11.16 27.0162 10.84C27.1362 10.52 27.1962 10.1433 27.1962 9.71C27.1962 9.27667 27.1362 8.90667 27.0162 8.6C26.9028 8.28667 26.7362 8.05 26.5162 7.89C26.3028 7.72333 26.0462 7.64 25.7462 7.64C25.4528 7.64 25.1962 7.72333 24.9762 7.89C24.7562 8.05 24.5862 8.28667 24.4662 8.6C24.3528 8.90667 24.2962 9.27667 24.2962 9.71C24.2962 10.1433 24.3528 10.52 24.4662 10.84C24.5862 11.16 24.7562 11.41 24.9762 11.59C25.1962 11.7633 25.4528 11.85 25.7462 11.85ZM31.2321 13V6.48H32.7021V11.76H35.2821V13H31.2321ZM37.7079 13V6.48H39.5479C40.2146 6.48 40.7912 6.59333 41.2779 6.82C41.7712 7.04667 42.1512 7.4 42.4179 7.88C42.6846 8.35333 42.8179 8.96333 42.8179 9.71C42.8179 10.4567 42.6846 11.0733 42.4179 11.56C42.1512 12.0467 41.7779 12.41 41.2979 12.65C40.8246 12.8833 40.2712 13 39.6379 13H37.7079ZM39.1779 11.81H39.4579C39.8312 11.81 40.1546 11.7433 40.4279 11.61C40.7079 11.4767 40.9246 11.2567 41.0779 10.95C41.2312 10.6433 41.3079 10.23 41.3079 9.71C41.3079 9.19 41.2312 8.78333 41.0779 8.49C40.9246 8.19 40.7079 7.98 40.4279 7.86C40.1546 7.73333 39.8312 7.67 39.4579 7.67H39.1779V11.81ZM51.3075 13.12C50.7208 13.12 50.2042 12.9833 49.7575 12.71C49.3175 12.4367 48.9708 12.0467 48.7175 11.54C48.4708 11.0333 48.3475 10.4233 48.3475 9.71C48.3475 9.00333 48.4708 8.4 48.7175 7.9C48.9708 7.4 49.3175 7.02 49.7575 6.76C50.2042 6.49333 50.7208 6.36 51.3075 6.36C51.8942 6.36 52.4108 6.49333 52.8575 6.76C53.3042 7.02 53.6508 7.4 53.8975 7.9C54.1442 8.4 54.2675 9.00333 54.2675 9.71C54.2675 10.4233 54.1442 11.0333 53.8975 11.54C53.6508 12.0467 53.3042 12.4367 52.8575 12.71C52.4108 12.9833 51.8942 13.12 51.3075 13.12ZM51.3075 11.85C51.6075 11.85 51.8642 11.7633 52.0775 11.59C52.2975 11.41 52.4642 11.16 52.5775 10.84C52.6975 10.52 52.7575 10.1433 52.7575 9.71C52.7575 9.27667 52.6975 8.90667 52.5775 8.6C52.4642 8.28667 52.2975 8.05 52.0775 7.89C51.8642 7.72333 51.6075 7.64 51.3075 7.64C51.0142 7.64 50.7575 7.72333 50.5375 7.89C50.3175 8.05 50.1475 8.28667 50.0275 8.6C49.9142 8.90667 49.8575 9.27667 49.8575 9.71C49.8575 10.1433 49.9142 10.52 50.0275 10.84C50.1475 11.16 50.3175 11.41 50.5375 11.59C50.7575 11.7633 51.0142 11.85 51.3075 11.85ZM59.3634 13.12C58.9368 13.12 58.5601 13.0633 58.2334 12.95C57.9134 12.83 57.6434 12.6467 57.4234 12.4C57.2034 12.1467 57.0368 11.8267 56.9234 11.44C56.8101 11.0533 56.7534 10.5933 56.7534 10.06V6.48H58.2334V10.21C58.2334 10.6167 58.2768 10.94 58.3634 11.18C58.4501 11.4133 58.5768 11.5833 58.7434 11.69C58.9101 11.7967 59.1168 11.85 59.3634 11.85C59.6034 11.85 59.8101 11.7967 59.9834 11.69C60.1568 11.5833 60.2868 11.4133 60.3734 11.18C60.4668 10.94 60.5134 10.6167 60.5134 10.21V6.48H61.9334V10.06C61.9334 10.5933 61.8768 11.0533 61.7634 11.44C61.6568 11.8267 61.4934 12.1467 61.2734 12.4C61.0601 12.6467 60.7934 12.83 60.4734 12.95C60.1534 13.0633 59.7834 13.12 59.3634 13.12ZM66.0138 13V7.72H64.2238V6.48H69.2838V7.72H67.4938V13H66.0138Z" fill="#9D9D9C"/>
</svg>
