<svg width="67" height="15" viewBox="0 0 67 15" fill="none" xmlns="http://www.w3.org/2000/svg">
<path d="M62.8948 3.14393C62.353 2.36672 61.8813 1.69165 61.3349 1.18979C60.0505 0.00842321 56.9915 -0.053754 56.02 0.0217469H10.98C10.0085 -0.0493128 6.94947 0.00842321 5.66513 1.18979C5.1187 1.69165 4.64699 2.36672 4.10523 3.14393C3.15248 4.50739 2.0316 6.11511 0 7.50078C2.0316 8.89088 3.15248 10.4986 4.10523 11.8576C4.64699 12.6348 5.1187 13.3099 5.66513 13.8118C6.94947 14.9931 10.0085 15.0509 10.98 14.9798H56.02C56.9915 15.0509 60.0505 14.9931 61.3349 13.8118C61.8813 13.3099 62.353 12.6348 62.8948 11.8576C63.8475 10.4942 64.9684 8.88644 67 7.50078C64.9684 6.11067 63.8475 4.50295 62.8948 3.14393Z" fill="#F9F5EC"/>
<path d="M12.9516 10.608C12.5616 10.608 12.1776 10.539 11.7996 10.401C11.4216 10.257 11.0826 10.041 10.7826 9.753L11.4846 8.889C11.6946 9.069 11.9316 9.21 12.1956 9.312C12.4656 9.414 12.7296 9.465 12.9876 9.465C13.2636 9.465 13.4676 9.414 13.5996 9.312C13.7376 9.21 13.8066 9.072 13.8066 8.898C13.8066 8.772 13.7706 8.673 13.6986 8.601C13.6326 8.523 13.5366 8.454 13.4106 8.394C13.2846 8.334 13.1346 8.268 12.9606 8.196L12.1956 7.881C11.9976 7.791 11.8056 7.677 11.6196 7.539C11.4396 7.395 11.2926 7.221 11.1786 7.017C11.0706 6.807 11.0166 6.558 11.0166 6.27C11.0166 5.946 11.1036 5.655 11.2776 5.397C11.4576 5.133 11.7036 4.923 12.0156 4.767C12.3336 4.605 12.6966 4.524 13.1046 4.524C13.4586 4.524 13.8006 4.587 14.1306 4.713C14.4606 4.839 14.7486 5.022 14.9946 5.262L14.2926 6.117C14.1006 5.973 13.9026 5.862 13.6986 5.784C13.5006 5.706 13.3026 5.667 13.1046 5.667C12.8766 5.667 12.6936 5.715 12.5556 5.811C12.4236 5.901 12.3576 6.03 12.3576 6.198C12.3576 6.312 12.3966 6.411 12.4746 6.495C12.5526 6.573 12.6606 6.642 12.7986 6.702C12.9366 6.756 13.0866 6.819 13.2486 6.891L14.0046 7.197C14.2446 7.293 14.4486 7.413 14.6166 7.557C14.7906 7.701 14.9256 7.875 15.0216 8.079C15.1176 8.277 15.1656 8.514 15.1656 8.79C15.1656 9.114 15.0786 9.414 14.9046 9.69C14.7306 9.966 14.4786 10.188 14.1486 10.356C13.8186 10.524 13.4196 10.608 12.9516 10.608ZM19.3466 10.608C18.8186 10.608 18.3536 10.485 17.9516 10.239C17.5556 9.993 17.2436 9.642 17.0156 9.186C16.7936 8.73 16.6826 8.181 16.6826 7.539C16.6826 6.903 16.7936 6.36 17.0156 5.91C17.2436 5.46 17.5556 5.118 17.9516 4.884C18.3536 4.644 18.8186 4.524 19.3466 4.524C19.8746 4.524 20.3396 4.644 20.7416 4.884C21.1436 5.118 21.4556 5.46 21.6776 5.91C21.8996 6.36 22.0106 6.903 22.0106 7.539C22.0106 8.181 21.8996 8.73 21.6776 9.186C21.4556 9.642 21.1436 9.993 20.7416 10.239C20.3396 10.485 19.8746 10.608 19.3466 10.608ZM19.3466 9.465C19.6166 9.465 19.8476 9.387 20.0396 9.231C20.2376 9.069 20.3876 8.844 20.4896 8.556C20.5976 8.268 20.6516 7.929 20.6516 7.539C20.6516 7.149 20.5976 6.816 20.4896 6.54C20.3876 6.258 20.2376 6.045 20.0396 5.901C19.8476 5.751 19.6166 5.676 19.3466 5.676C19.0826 5.676 18.8516 5.751 18.6536 5.901C18.4556 6.045 18.3026 6.258 18.1946 6.54C18.0926 6.816 18.0416 7.149 18.0416 7.539C18.0416 7.929 18.0926 8.268 18.1946 8.556C18.3026 8.844 18.4556 9.069 18.6536 9.231C18.8516 9.387 19.0826 9.465 19.3466 9.465ZM23.9139 10.5V4.632H25.2369V9.384H27.5589V10.5H23.9139ZM29.3721 10.5V4.632H31.0281C31.6281 4.632 32.1471 4.734 32.5851 4.938C33.0291 5.142 33.3711 5.46 33.6111 5.892C33.8511 6.318 33.9711 6.867 33.9711 7.539C33.9711 8.211 33.8511 8.766 33.6111 9.204C33.3711 9.642 33.0351 9.969 32.6031 10.185C32.1771 10.395 31.6791 10.5 31.1091 10.5H29.3721ZM30.6951 9.429H30.9471C31.2831 9.429 31.5741 9.369 31.8201 9.249C32.0721 9.129 32.2671 8.931 32.4051 8.655C32.5431 8.379 32.6121 8.007 32.6121 7.539C32.6121 7.071 32.5431 6.705 32.4051 6.441C32.2671 6.171 32.0721 5.982 31.8201 5.874C31.5741 5.76 31.2831 5.703 30.9471 5.703H30.6951V9.429ZM40.8718 10.608C40.3438 10.608 39.8788 10.485 39.4768 10.239C39.0808 9.993 38.7688 9.642 38.5408 9.186C38.3188 8.73 38.2078 8.181 38.2078 7.539C38.2078 6.903 38.3188 6.36 38.5408 5.91C38.7688 5.46 39.0808 5.118 39.4768 4.884C39.8788 4.644 40.3438 4.524 40.8718 4.524C41.3998 4.524 41.8648 4.644 42.2668 4.884C42.6688 5.118 42.9808 5.46 43.2028 5.91C43.4248 6.36 43.5358 6.903 43.5358 7.539C43.5358 8.181 43.4248 8.73 43.2028 9.186C42.9808 9.642 42.6688 9.993 42.2668 10.239C41.8648 10.485 41.3998 10.608 40.8718 10.608ZM40.8718 9.465C41.1418 9.465 41.3728 9.387 41.5648 9.231C41.7628 9.069 41.9128 8.844 42.0148 8.556C42.1228 8.268 42.1768 7.929 42.1768 7.539C42.1768 7.149 42.1228 6.816 42.0148 6.54C41.9128 6.258 41.7628 6.045 41.5648 5.901C41.3728 5.751 41.1418 5.676 40.8718 5.676C40.6078 5.676 40.3768 5.751 40.1788 5.901C39.9808 6.045 39.8278 6.258 39.7198 6.54C39.6178 6.816 39.5668 7.149 39.5668 7.539C39.5668 7.929 39.6178 8.268 39.7198 8.556C39.8278 8.844 39.9808 9.069 40.1788 9.231C40.3768 9.387 40.6078 9.465 40.8718 9.465ZM47.7521 10.608C47.3681 10.608 47.0291 10.557 46.7351 10.455C46.4471 10.347 46.2041 10.182 46.0061 9.96C45.8081 9.732 45.6581 9.444 45.5561 9.096C45.4541 8.748 45.4031 8.334 45.4031 7.854V4.632H46.7351V7.989C46.7351 8.355 46.7741 8.646 46.8521 8.862C46.9301 9.072 47.0441 9.225 47.1941 9.321C47.3441 9.417 47.5301 9.465 47.7521 9.465C47.9681 9.465 48.1541 9.417 48.3101 9.321C48.4661 9.225 48.5831 9.072 48.6611 8.862C48.7451 8.646 48.7871 8.355 48.7871 7.989V4.632H50.0651V7.854C50.0651 8.334 50.0141 8.748 49.9121 9.096C49.8161 9.444 49.6691 9.732 49.4711 9.96C49.2791 10.182 49.0391 10.347 48.7511 10.455C48.4631 10.557 48.1301 10.608 47.7521 10.608ZM53.3674 10.5V5.748H51.7564V4.632H56.3104V5.748H54.6994V10.5H53.3674Z" fill="#9D9D9C"/>
</svg>
