<svg width="59" height="54" viewBox="0 0 59 54" fill="none" xmlns="http://www.w3.org/2000/svg">
<path d="M42.069 28.3532C42.3473 28.3532 42.5652 28.3496 42.7842 28.3532C43.8916 28.3787 44.9977 28.4054 46.1051 28.505C47.2899 28.6106 48.6356 30.171 48.6381 31.5188C48.6405 32.9092 48.3621 34.2546 48.016 35.5818C46.4778 41.471 43.1848 46.1459 38.2265 49.6357C35.0799 51.8506 31.5812 53.1996 27.7811 53.7472C25.6559 54.0532 23.5126 54.0872 21.3875 53.8165C14.7894 52.9774 9.37119 49.9575 5.17172 44.7786C2.63146 41.6446 1.04002 38.0552 0.240065 34.1064C0.0549012 33.1921 -0.0189224 32.268 0.00407184 31.333C0.0282763 30.2924 0.609183 29.5784 1.37767 28.9931C1.89807 28.5973 2.48019 28.403 3.1688 28.4079C6.18347 28.4297 9.19813 28.4018 12.2128 28.3909C16.9314 28.3739 21.6501 28.3569 26.3688 28.3386C26.9037 28.3362 27.4374 28.3289 27.9723 28.3326C28.1442 28.3326 28.2749 28.2876 28.4031 28.165C32.432 24.3461 36.4705 20.5357 40.4969 16.7132C43.2719 14.0795 46.0579 11.4591 48.7833 8.77311C49.1778 8.38333 49.4029 8.0239 49.3521 7.39977C49.2371 5.99243 50.2912 5.02466 51.6442 5.16187C51.9758 5.19587 52.2627 5.32458 52.5144 5.54436C54.2946 7.09742 56.0107 8.71968 57.6445 10.4282C58.3634 11.1798 58.4626 12.1621 57.9495 13.0534C57.5017 13.8305 56.5166 14.2531 55.6005 14.0382C55.4117 13.9945 55.2967 14.0467 55.1708 14.1645C54.343 14.9367 53.5854 15.777 52.8182 16.6076C50.8031 18.786 48.7954 20.9741 46.7864 23.1586C45.2422 24.8379 43.7016 26.5197 42.1585 28.2014C42.1392 28.2221 42.1283 28.2512 42.069 28.3496V28.3532ZM24.1988 30.2875C24.1988 30.2875 24.1988 30.2803 24.1988 30.2766C20.4786 30.2766 16.7572 30.273 13.037 30.2766C9.79114 30.2803 6.54411 30.2754 3.2983 30.3361C2.79 30.3458 2.38216 30.466 2.0675 30.8935C1.81577 31.2335 1.79641 31.6002 1.83272 31.9887C2.0203 34.0056 2.53102 35.9436 3.28135 37.8184C4.5303 40.9416 6.37831 43.6615 8.83143 45.9613C12.0506 48.9788 15.8362 50.8888 20.1531 51.7231C22.9547 52.2646 25.7661 52.2124 28.5653 51.6611C31.2399 51.1353 33.7644 50.1991 36.0723 48.7444C41.3356 45.4295 44.7157 40.7254 46.2285 34.6796C46.4657 33.7312 46.692 32.7732 46.6884 31.7823C46.6848 30.9068 46.1789 30.3774 45.3136 30.347C44.5584 30.3203 43.802 30.2912 43.0456 30.29C36.7646 30.2851 30.4823 30.2875 24.2012 30.2875H24.1988ZM30.9216 28.3386C31.0269 28.3544 31.0656 28.3666 31.1044 28.3666C33.7862 28.3666 36.4668 28.3666 39.1487 28.3714C39.3254 28.3714 39.4234 28.2804 39.5275 28.1662C40.2815 27.3381 41.0379 26.5112 41.7942 25.6855C43.9569 23.3273 46.1208 20.9717 48.2822 18.6123C50.0141 16.7229 51.7386 14.8262 53.4777 12.9441C53.6665 12.7389 53.6617 12.6199 53.4826 12.4256C52.662 11.5331 51.7834 10.6989 50.9447 9.82588C50.7463 9.61945 50.6398 9.64495 50.4485 9.82831C48.7639 11.4396 47.0708 13.0413 45.3789 14.6441C43.4886 16.4339 41.597 18.2226 39.7066 20.0112C37.4278 22.1689 35.1489 24.3267 32.8701 26.4857C32.2347 27.0879 31.6018 27.6926 30.9228 28.3399L30.9216 28.3386ZM56.231 12.0431C56.162 11.9545 56.0906 11.844 56.0035 11.7493C54.5887 10.2242 53.1086 8.76461 51.6055 7.32934C51.5063 7.23463 51.4058 6.95899 51.2231 7.14113C51.05 7.31477 51.303 7.44227 51.401 7.55034C52.7334 9.01353 54.1216 10.4221 55.569 11.7711C55.7154 11.9071 55.8849 12.0201 56.0519 12.1306C56.1148 12.1719 56.2092 12.2046 56.231 12.0419V12.0431Z" fill="#B01C1A"/>
<path d="M3.14965 10.3007C3.14965 9.16775 3.15207 8.03484 3.14844 6.90314C3.14723 6.47572 3.4401 6.12358 3.87578 6.05922C4.43975 5.97665 5.00371 6.05801 5.56646 6.07865C6.98969 6.13329 8.39596 6.31908 9.75141 6.78293C13.5842 8.09555 16.4633 10.5423 18.3803 14.1232C19.2722 15.7892 19.8156 17.5681 20.0129 19.4441C20.1061 20.3378 20.1012 21.2412 20.0976 22.1422C20.094 23.2545 20.0976 24.3668 20.0952 25.479C20.0952 25.6102 20.0915 25.7425 20.077 25.8725C19.9911 26.6338 19.7261 26.8597 18.9588 26.8803C16.2842 26.9532 13.7064 26.5136 11.3368 25.2374C7.17606 22.9959 4.52446 19.5619 3.46189 14.9222C3.17749 13.6776 3.23679 12.4099 3.19806 11.1482C3.18959 10.8653 3.19685 10.5824 3.19685 10.2995C3.18112 10.2995 3.16538 10.2995 3.14965 10.2995V10.3007ZM18.2302 22.1192C18.2399 21.0045 18.2399 19.6712 17.9712 18.3719C17.3698 15.4637 15.9018 13.0473 13.658 11.1154C11.2581 9.04997 8.45405 8.02513 5.30143 7.92677C5.08601 7.91948 5.01823 7.97413 5.02065 8.18784C5.03034 8.8144 5.02307 9.44218 5.02428 10.0687C5.0255 11.3632 4.99403 12.6661 5.21792 13.9435C5.87023 17.6676 7.74486 20.6341 10.8551 22.7797C12.967 24.2356 15.3245 24.9727 17.8889 25.0443C18.1625 25.0516 18.2435 24.9788 18.2363 24.6971C18.2157 23.909 18.229 23.1197 18.229 22.1192H18.2302Z" fill="#B01C1A"/>
<path d="M38.3018 5.05141C38.2812 6.46118 38.2788 7.83209 37.8637 9.14957C36.5457 13.3376 33.7441 15.9191 29.4623 16.8371C28.5195 17.0399 27.5417 17.0581 26.5735 16.9889C26.1681 16.9598 25.8982 16.7157 25.8716 16.3198C25.7179 14.0455 25.6005 11.7505 26.2903 9.55028C27.4848 5.74233 30.0396 3.27493 33.8929 2.1918C34.9809 1.88581 36.0883 1.79231 37.2126 1.82874C37.9581 1.85302 38.1747 2.05338 38.2558 2.79287C38.3393 3.55907 38.2788 4.32892 38.303 5.05141H38.3018ZM36.4017 5.3489C36.4017 4.88384 36.4005 4.41877 36.4017 3.95371C36.4017 3.79342 36.386 3.69871 36.1681 3.71693C33.8227 3.90878 31.815 4.8122 30.1788 6.52432C29.0145 7.74344 28.2218 9.17628 27.9035 10.8289C27.6433 12.1804 27.6591 13.5647 27.63 14.9392C27.6264 15.1214 27.7269 15.1371 27.86 15.125C28.2109 15.0934 28.5619 15.0789 28.9092 15.0084C32.6549 14.2556 35.0293 11.9995 36.1258 8.36029C36.4211 7.38038 36.3678 6.35918 36.4005 5.3489H36.4017Z" fill="#B01C1A"/>
<path d="M17.6762 0.000106153C19.7421 0.0183202 21.0733 1.37345 21.0539 3.43892C21.0382 5.20204 19.5412 6.62516 17.721 6.60209C16.1925 6.58266 14.5006 5.35625 14.5357 3.25799C14.5672 1.47302 15.9892 -0.0144651 17.6762 0.000106153ZM17.8154 4.69083C18.5403 4.68962 19.2084 3.99384 19.2023 3.24585C19.1975 2.61564 18.4496 1.87251 17.8166 1.87008C17.1304 1.86644 16.3934 2.595 16.3958 3.27378C16.3982 4.0072 17.0844 4.69205 17.8154 4.69083Z" fill="#B01C1A"/>
<path d="M27.6924 19.8968C29.026 19.8968 30.3331 20.9738 30.2629 22.4856C30.1927 24.0156 29.1471 25.0963 27.6549 25.072C26.1832 25.0489 25.111 23.9294 25.1291 22.4382C25.1473 21.0005 26.2813 19.8761 27.6924 19.8968ZM27.6863 21.7801C27.3463 21.7837 27.0086 22.1456 27.0086 22.5087C27.0086 22.8183 27.3959 23.1911 27.7117 23.1862C28.0276 23.1814 28.3701 22.8317 28.3762 22.5087C28.3822 22.1881 27.9925 21.7765 27.6851 21.7801H27.6863Z" fill="#B01C1A"/>
</svg>
