<svg width="126" height="30" viewBox="0 0 126 30" fill="none" xmlns="http://www.w3.org/2000/svg">
<g id="Frame" clip-path="url(#clip0_1397_7616)">
<g id="Group">
<path id="Vector" d="M106.058 12.5618V18.8709C106.058 19.4872 105.878 19.6754 105.312 19.6754H104.761C103.207 19.6754 102.964 18.1872 102.964 17.4691V12.6818C102.964 11.6218 102.348 11.0572 101.214 11.0572C100.452 11.0572 99.7407 11.2282 99.7079 11.2282V18.8882C99.7079 19.5045 99.5296 19.6918 98.9466 19.6918H98.5411C96.6954 19.6918 96.5978 18.0845 96.5978 17.4863V4.43997C96.5978 3.82451 96.7753 3.63633 97.3592 3.63633H98.0229C99.3184 3.63633 99.7079 4.91815 99.7079 5.51724V8.21906C99.7727 8.21906 100.647 8.06451 101.619 8.06451C104.664 8.06451 106.058 9.7236 106.058 12.5618ZM49.5129 8.38906H48.3949C47.472 8.38906 47.197 8.52633 47.0674 9.21088L46.3549 12.9209C46.2573 13.4682 45.8686 13.6391 45.5288 12.9209L44.4108 10.1845C44.4108 10.1845 43.9902 8.85179 42.9369 8.85179C41.9165 8.85179 41.4302 10.1518 41.4302 10.1518L40.3122 12.9209C40.1028 13.4336 39.6485 13.5363 39.519 12.9209L38.7585 9.1936C38.6281 8.52633 38.3211 8.38997 37.4302 8.38997H36.1986C35.4861 8.38997 35.3734 8.57815 35.5837 9.32997L37.786 17.6063C37.9324 18.17 38.4178 19.6754 39.8597 19.6754C40.653 19.6754 41.0416 19.35 41.2688 18.8027C41.6246 17.9654 42.4507 15.9136 42.4507 15.9136C42.629 15.3318 43.196 15.4345 43.3096 15.9136C43.3096 15.9136 43.8278 17.3318 44.055 18.0336C44.2324 18.5809 44.7834 19.6582 46.0789 19.6582H46.4356C47.197 19.6582 47.6664 18.7854 47.8119 18.2218L50.1935 9.3127C50.3549 8.59451 50.2582 8.38997 49.5129 8.38997V8.38906ZM56.607 8.06451C55.6354 8.06451 54.7614 8.21906 54.6957 8.21906V5.51724C54.6957 4.90179 54.3231 3.63633 53.0116 3.63633H52.347C51.764 3.63633 51.5866 3.82451 51.5866 4.43997V17.4863C51.5866 18.1018 51.6664 19.6918 53.5298 19.6918H53.9344C54.5183 19.6918 54.6957 19.5045 54.6957 18.8882V11.2109C54.7126 11.2109 55.4411 11.04 56.2024 11.04C57.3364 11.04 57.9513 11.6036 57.9513 12.6645V17.4518C57.9513 18.1882 58.1945 19.6582 59.7491 19.6582H60.3001C60.8502 19.6582 61.0454 19.47 61.0454 18.8545V12.5454C61.0454 9.72361 59.6523 8.06451 56.607 8.06451ZM71.8974 12.6472V18.1536C71.8974 18.94 71.735 19.1445 71.1361 19.4191C70.3588 19.7945 69.0145 20 67.2487 20C63.5069 20 62.5353 18.7345 62.5353 16.4263C62.5353 13.7082 63.9603 12.87 67.3295 12.87C67.8645 12.87 68.4635 12.8872 68.7873 12.9209V12.4427C68.7873 11.3818 68.3339 10.8345 67.1999 10.8345C66.3747 10.8345 65.8716 11.1082 65.4998 11.6391C65.1759 12.1172 65.0135 12.22 64.4465 11.9809L63.3125 11.4845C62.7784 11.2454 62.616 10.9372 62.9079 10.3391C63.6204 8.9027 65.0943 8.08179 67.3135 8.08179C70.7962 8.06451 71.8974 9.97997 71.8974 12.6472ZM67.8477 15.3836C67.5406 15.3836 67.3463 15.3654 67.0704 15.3654C65.9044 15.3654 65.6453 15.8281 65.6453 16.4091C65.6453 17.0418 65.8716 17.4691 67.0216 17.4691C67.8805 17.4691 68.3827 17.4181 68.6418 17.3836C68.7226 17.3663 68.7873 17.3327 68.7873 17.23V16.3409C68.8006 16.2114 68.7853 16.0805 68.7427 15.9578C68.7 15.8351 68.6311 15.7238 68.541 15.6319C68.4509 15.5401 68.3418 15.4702 68.2218 15.4272C68.1018 15.3842 67.974 15.3693 67.8477 15.3836ZM79.7041 16.6654C78.6677 17.1445 77.8096 16.7172 77.8096 15.5718V11.2963H79.72C80.2711 11.2963 80.4654 11.1082 80.4654 10.4927V9.1927C80.4654 8.57815 80.2879 8.38997 79.72 8.38997H77.8096V7.36361C77.8096 6.74815 77.437 5.4827 76.1246 5.4827H75.4609C74.8779 5.4827 74.6996 5.67088 74.6996 6.28633V8.40724H73.6144C73.0314 8.40724 72.8531 8.59542 72.8531 9.21088V10.5109C72.8531 11.1254 73.0305 11.3136 73.6144 11.3136H74.6996V16.6318C74.6996 18.5809 75.7519 19.9654 77.728 19.9827C78.9436 20 80.5462 19.5045 80.5462 17.9991C80.563 17.2127 79.8665 16.5972 79.7041 16.6654ZM125.153 16.6654C124.116 17.1445 123.258 16.7172 123.258 15.5718V11.2963H125.17C125.72 11.2963 125.915 11.1082 125.915 10.4927V9.1927C125.915 8.57815 125.737 8.38997 125.17 8.38997H123.258V7.36361C123.258 6.74815 122.886 5.4827 121.573 5.4827H120.91C120.327 5.4827 120.148 5.67088 120.148 6.28633V8.40633H119.063C118.48 8.40633 118.302 8.59542 118.302 9.21088V10.5109C118.302 11.1254 118.479 11.3136 119.063 11.3136H120.148V16.6318C120.148 18.5809 121.202 19.9654 123.178 19.9827C124.392 20 125.996 19.5045 125.996 18C126.012 17.2136 125.299 16.5972 125.153 16.6654ZM86.556 12.6645C85.1141 12.5281 84.5311 12.3563 84.5631 11.69C84.5959 11.04 85.3732 10.8009 86.0538 10.8518C86.879 10.9209 87.3493 11.1081 87.6891 11.4163C88.3209 11.98 89.147 12.0491 89.714 11.7927L90.281 11.5363C90.8311 11.28 90.9775 10.9718 90.6856 10.3909C89.9731 8.95451 88.4345 8.06451 85.9721 8.06451C83.0413 8.06451 81.5506 9.56997 81.5506 11.69C81.5506 14.4427 83.6074 15.0245 85.7618 15.2463C87.3652 15.4009 87.9482 15.5545 87.9482 16.2891C87.9482 16.9054 87.3493 17.1791 86.1824 17.1791C85.5835 17.1791 84.7574 16.7854 84.3528 16.4609C84.0617 16.2209 83.737 15.8282 82.7006 16.1018C82.5062 16.1527 82.0528 16.3236 82.0528 16.3236C81.5027 16.5118 81.3563 16.8363 81.5666 17.4009C82.1824 19.0254 83.7698 19.9827 86.296 19.9827C89.2925 19.9827 90.9287 18.4436 90.9287 16.2036C90.9128 13.64 89.3094 12.9554 86.556 12.6645ZM117.524 12.6472V15.4518C117.524 18.29 115.855 20 112.617 20C109.41 20 107.725 18.2909 107.725 15.4518V12.6472C107.725 9.80906 109.41 8.06542 112.617 8.06542C115.872 8.06542 117.524 9.80906 117.524 12.6472ZM114.43 12.5963C114.43 11.5363 113.831 10.9718 112.617 10.9718C111.419 10.9718 110.835 11.5354 110.835 12.5963V15.4509C110.835 16.4945 111.434 17.0763 112.617 17.0763C113.832 17.0763 114.43 16.4945 114.43 15.4518V12.5963ZM2.4226 12.5791C3.11116 12.5091 3.51578 11.8118 4.37826 12.1372C5.27446 12.4736 5.56993 14.8809 6.22567 17.4845C6.57527 18.8327 6.96836 20.96 8.29047 20.96C10.4972 20.96 10.6392 17.9727 11.5026 17.5427C11.9507 17.3218 12.2896 17.2172 12.5408 16.2409C12.7919 15.2645 13.1637 15.1018 13.4813 15.1245C13.885 15.1481 13.9507 15.5781 14.3216 16.6009C14.7475 17.7754 15.327 19.6236 15.775 20.7972C16.2666 22.1109 16.9224 23.3782 18.201 23.39C19.7414 23.4018 20.2445 21.89 20.7796 20.3672C21.3696 18.7054 22.091 15.4618 22.8231 13.6945C23.2268 12.6945 23.7956 12.1254 24.7681 12.4282C26.3413 12.9282 27.1284 12.0909 27.3245 11.0327C25.7637 4.69724 20.3421 0.0126953 13.8957 0.0126953C7.34015 0.0126953 1.84406 4.85997 0.390625 11.37C0.663921 12.1136 1.27529 12.6836 2.4226 12.5791Z" fill="#0D0D0D"/>
<path id="Vector_2" d="M27.3143 11.0217C27.1173 12.079 26.3312 12.9045 24.7571 12.4163C23.7845 12.1135 23.2273 12.6835 22.812 13.6835C22.0915 15.4499 21.3595 18.6926 20.7694 20.3563C20.2335 21.8781 19.7206 23.3899 18.1909 23.3781C16.9229 23.3663 16.2671 22.099 15.7649 20.7863C15.3275 19.6117 14.7374 17.7754 14.3115 16.589C13.9397 15.5663 13.874 15.1363 13.4703 15.1135C13.1535 15.0899 12.7817 15.2526 12.5297 16.229C12.2795 17.2054 11.9299 17.3108 11.4924 17.5308C10.6291 17.9608 10.4871 20.949 8.28033 20.949C6.95822 20.949 6.56425 18.8326 6.21464 17.4726C5.54915 14.869 5.26432 12.4635 4.36901 12.1254C3.50476 11.7999 3.10014 12.4981 2.41246 12.5672C1.26515 12.6717 0.652897 12.1135 0.380489 11.3581C0.133466 12.4759 0.00847357 13.6184 0.0078125 14.7645C0.0078125 22.9135 6.21464 29.5281 13.8856 29.5281C21.5449 29.5281 27.7624 22.9245 27.7624 14.7645C27.7624 13.4735 27.6089 12.219 27.3143 11.0217Z" fill="#9D9D9C"/>
</g>
</g>
<defs>
<clipPath id="clip0_1397_7616">
<rect width="126" height="30" fill="white"/>
</clipPath>
</defs>
</svg>
