<svg width="165" height="58" viewBox="0 0 165 58" fill="none" xmlns="http://www.w3.org/2000/svg">
<g id="Logo">
<g id="Group 1073712177">
<path id="Vector" d="M71.0294 28.3913C71.0294 25.1297 71.0294 21.8725 71.0294 18.611C71.0294 18.3542 71.0294 18.0973 71.0208 17.8405C70.9951 17.0401 70.978 17.0144 70.2033 16.993C69.5741 16.9759 68.9449 16.9802 68.3157 16.9716C68.1188 16.9716 67.9134 16.9759 67.7935 16.7576C67.618 16.4323 67.8021 16.0428 68.1745 16C68.4869 15.9658 68.8037 15.9743 69.1161 15.9743C73.2637 15.9743 77.4112 15.9658 81.5587 15.9872C84.388 16.0043 86.5537 17.2284 88.0133 19.6639C89.9822 22.9511 88.8137 27.5523 85.5265 29.5212C84.3409 30.2318 83.0739 30.6041 81.7 30.617C80.0692 30.6298 78.4384 30.6298 76.8077 30.6341C76.5808 30.6341 76.3497 30.6298 76.1228 30.6384C75.4808 30.6683 75.438 30.7154 75.3909 31.3232C75.3866 31.4088 75.3867 31.4944 75.3867 31.58C75.3867 34.0112 75.3866 36.4424 75.3952 38.8735C75.3952 39.7981 75.4423 39.828 76.3711 39.8494C76.9703 39.8623 77.5738 39.858 78.1731 39.8623C78.4641 39.8623 78.6696 39.9607 78.6781 40.3031C78.691 40.6584 78.5369 40.8381 78.1774 40.8381C77.9505 40.8381 77.7194 40.851 77.4925 40.851C74.6333 40.851 71.7741 40.8553 68.9107 40.8553C68.6539 40.8553 68.397 40.8553 68.1402 40.8296C67.8107 40.7996 67.7251 40.5642 67.7293 40.2817C67.7379 40.0035 67.9091 39.8794 68.1745 39.8623C68.3457 39.8537 68.5169 39.8451 68.6881 39.8451C69.176 39.8451 69.6597 39.858 70.1477 39.8451C70.9481 39.8237 71.0165 39.7595 71.0165 38.9377C71.0208 35.4194 71.0165 31.9053 71.0165 28.387H71.0208L71.0294 28.3913ZM75.3909 23.255C75.3909 25.0826 75.3866 26.9103 75.3909 28.738C75.3909 29.5683 75.4551 29.6411 76.2513 29.6454C78.0489 29.6582 79.8509 29.6711 81.6486 29.6454C83.5191 29.6154 84.5506 28.5582 84.5634 26.6835C84.5806 24.4577 84.5634 22.2278 84.5634 20.002C84.5634 19.5997 84.5249 19.2016 84.358 18.8292C83.8272 17.6351 82.8899 17.023 81.6058 17.0016C79.8638 16.9716 78.1217 16.9845 76.3797 16.993C75.4466 16.993 75.3952 17.0401 75.3909 17.9518C75.3824 19.7238 75.3909 21.4916 75.3909 23.2636V23.255Z" fill="#F9F5EC"/>
<path id="Vector_2" d="M98.2752 17.513C98.5063 17.7612 98.7503 17.7783 98.9515 17.8725C100.133 18.4289 100.634 19.5717 100.193 20.706C99.7604 21.8103 98.5021 22.3667 97.3507 21.9601C96.2721 21.5792 95.6771 20.3165 96.0794 19.1309C96.6188 17.5344 97.8087 16.6269 99.3881 16.1818C99.8546 16.0491 100.343 16.0234 100.835 16.0234C107.127 16.0234 113.419 16.0234 119.711 16.0234C119.937 16.0234 120.169 16.0234 120.391 16.062C120.622 16.1005 120.699 16.2931 120.704 16.5114C120.712 16.7425 120.614 16.9094 120.378 16.9394C120.151 16.9694 119.925 16.9694 119.693 16.9694C117.147 16.9694 114.604 16.9694 112.058 16.9694C111.745 16.9694 111.428 16.9779 111.116 16.9822C110.761 16.9865 110.602 17.1791 110.598 17.5215C110.598 17.6927 110.598 17.8639 110.598 18.0351C110.594 24.8963 110.589 31.7575 110.585 38.623C110.585 39.4505 110.99 39.8671 111.801 39.8728C112.259 39.8728 112.717 39.8686 113.175 39.8814C113.508 39.89 113.907 39.8386 113.915 40.3608C113.924 40.7332 113.778 40.8402 113.192 40.8487C112.22 40.8616 111.249 40.8573 110.277 40.8573C108.163 40.8573 106.044 40.853 103.929 40.8487C103.814 40.8487 103.703 40.8487 103.587 40.8487C103.253 40.8487 102.932 40.8145 102.911 40.3779C102.889 39.9242 103.215 39.8899 103.548 39.8857C104.062 39.8771 104.58 39.8857 105.094 39.8771C105.295 39.8771 105.492 39.8686 105.693 39.8686C106.048 39.8643 106.206 39.6717 106.215 39.3292C106.219 39.1024 106.232 38.8713 106.232 38.6444C106.232 31.8089 106.232 24.9777 106.228 18.1422C106.228 16.9737 106.224 16.9737 105.038 16.9779C103.352 16.9779 101.665 16.9694 99.9744 16.9822C99.3881 16.9865 98.776 16.9651 98.2795 17.5044L98.2752 17.513Z" fill="#F9F5EC"/>
<path id="Vector_3" d="M130.998 15.5167C131.362 15.7864 131.439 16.1673 131.576 16.4884C133.883 21.8429 136.181 27.2017 138.484 32.5563C139.422 34.7349 140.38 36.905 141.284 39.1008C141.532 39.7086 141.883 39.9183 142.508 39.884C143.192 39.8455 143.882 39.884 144.566 39.884C144.909 39.884 145.106 40.0167 145.089 40.3891C145.076 40.7187 144.892 40.8385 144.592 40.8428C144.421 40.8428 144.25 40.8514 144.078 40.8514C141.078 40.8514 138.073 40.8514 135.073 40.8514C134.872 40.8514 134.671 40.8514 134.474 40.8257C134.195 40.7914 134.101 40.5988 134.097 40.3377C134.097 40.0595 134.238 39.9054 134.508 39.8926C134.88 39.8755 135.253 39.884 135.621 39.8798C135.792 39.8798 135.963 39.8798 136.134 39.8755C137.012 39.8498 137.059 39.7856 136.729 38.998C136.211 37.761 135.685 36.5241 135.154 35.2871C133.386 31.161 131.614 27.0391 129.847 22.9173C129.8 22.8102 129.765 22.7032 129.714 22.6005C129.611 22.4122 129.586 22.1126 129.286 22.1468C129.055 22.1725 129.025 22.4293 128.948 22.6048C127.788 25.2799 126.637 27.9593 125.481 30.6345C125.241 31.1866 124.984 31.7302 124.77 32.2866C124.586 32.7746 124.672 32.9116 125.207 32.9201C126.752 32.9415 128.293 32.933 129.838 32.9372C130.065 32.9372 130.296 32.9415 130.523 32.9629C130.724 32.9843 130.814 33.1213 130.827 33.3139C130.84 33.5365 130.78 33.7248 130.532 33.759C130.305 33.789 130.078 33.7933 129.847 33.7933C128.216 33.7933 126.585 33.8104 124.959 33.7847C124.33 33.7762 123.979 34.003 123.743 34.6022C123.191 36.0104 122.566 37.3929 121.971 38.784C121.924 38.891 121.873 38.9895 121.834 39.0965C121.607 39.7299 121.667 39.8198 122.373 39.8669C122.656 39.884 122.943 39.8669 123.23 39.8669C123.486 39.8669 123.743 39.8626 124 39.8755C124.317 39.8926 124.565 40.0082 124.552 40.3848C124.539 40.7144 124.312 40.8086 124.026 40.8257C123.884 40.8342 123.739 40.8385 123.598 40.8385C121.71 40.8385 119.822 40.8428 117.935 40.8385C117.708 40.8385 117.477 40.83 117.254 40.7872C117.028 40.7444 116.942 40.5603 116.938 40.3377C116.933 40.098 117.057 39.9611 117.284 39.9226C117.854 39.8198 118.423 39.8712 118.996 39.8669C120.55 39.8541 120.328 40.0467 120.974 38.5486C122.639 34.6921 124.325 30.8442 125.986 26.9877C127.403 23.7091 128.794 20.4176 130.202 17.1347C130.433 16.5954 130.613 16.0218 130.99 15.5039L130.998 15.5167Z" fill="#F9F5EC"/>
<path id="Vector_4" d="M162.782 39.3912C162.559 39.0574 162.238 39.0745 161.99 38.9589C160.954 38.4753 160.466 37.4266 160.779 36.3223C161.057 35.3421 162.071 34.6659 163.081 34.79C164.177 34.9227 164.935 35.7488 164.995 36.8702C165.11 38.9375 163.693 40.6025 161.639 40.8123C161.296 40.8465 160.954 40.8551 160.612 40.8551C156.55 40.8551 152.488 40.8551 148.43 40.8551C148.203 40.8551 147.972 40.8551 147.745 40.8337C147.424 40.8123 147.304 40.6154 147.313 40.3115C147.321 40.0247 147.501 39.9049 147.758 39.8963C148.242 39.8792 148.73 39.8792 149.218 39.8749C149.389 39.8749 149.56 39.8749 149.731 39.8749C150.536 39.8492 150.6 39.7979 150.6 38.9675C150.604 31.9351 150.604 24.8984 150.6 17.866C150.6 17.0485 150.536 16.9971 149.718 16.98C149.089 16.9672 148.46 16.9757 147.831 16.9672C147.548 16.9672 147.317 16.8816 147.313 16.5349C147.313 16.171 147.51 16.0212 147.852 16.0212C149.141 16.0212 150.425 16.0212 151.713 16.0212C152.543 16.0212 153.374 16.0127 154.2 16.0341C154.872 16.0469 154.915 16.1068 154.927 16.7917C154.936 17.2497 154.919 17.7076 154.919 18.1656C154.919 25.0011 154.915 31.8324 154.91 38.6679C154.91 38.7235 154.91 38.7834 154.91 38.8391C154.919 39.8834 154.923 39.8877 155.968 39.8834C157.684 39.8834 159.4 39.8834 161.117 39.8834C161.716 39.8834 162.281 39.785 162.782 39.3955V39.3912Z" fill="#F9F5EC"/>
<path id="Vector_5" d="M94.2686 32.9492C95.4671 32.9492 96.6655 32.9492 97.864 32.9492C98.0609 32.9492 98.2663 32.9578 98.459 32.9963C98.6558 33.0391 98.7072 33.2189 98.7072 33.3944C98.7072 33.5827 98.6344 33.7368 98.4333 33.7667C98.2364 33.7967 98.0352 33.801 97.8383 33.801C95.4414 33.8053 93.0402 33.8095 90.6433 33.8138C90.4164 33.8138 90.1853 33.8053 89.9627 33.7625C89.7615 33.7239 89.7188 33.5399 89.7188 33.3644C89.7188 33.1804 89.783 33.0177 89.9884 32.9877C90.1853 32.9578 90.3865 32.9535 90.5834 32.9535C91.8118 32.9535 93.0402 32.9535 94.2643 32.9535L94.2686 32.9492Z" fill="#F9F5EC"/>
</g>
<g id="Group 1073712176">
<g id="Group 1073712175">
<path id="Vector_6" d="M36.6152 33.4823C36.5074 33.7582 36.5525 34.0115 36.545 34.2548C36.535 34.5231 36.5726 34.794 36.54 35.0573C36.4723 35.6216 36.7055 36.053 37.0416 36.4768C38.4535 38.265 40.2016 39.6017 42.3258 40.4394C43.6325 40.956 44.9842 41.2319 46.3887 41.282C49.1299 41.3799 51.6228 40.635 53.8825 39.0976C54.843 38.4455 55.6932 37.6631 56.418 36.7527C56.5233 36.6223 56.6287 36.4919 56.744 36.3715C56.8443 36.2661 56.9748 36.2185 57.1052 36.3188C57.2557 36.4342 57.2331 36.5771 57.1328 36.7151C56.7942 37.174 56.423 37.6079 56.0192 38.0092C54.1383 39.8801 51.9112 41.1416 49.2929 41.593C44.746 42.378 40.806 41.1391 37.5331 37.8637C37.2422 37.5728 36.9814 37.2493 36.698 36.9307C36.4948 37.1013 36.5575 37.2994 36.5575 37.4674C36.5651 38.9396 36.3368 38.4982 37.4127 39.4838C39.3765 41.282 41.6988 42.3956 44.3146 42.8696C47.3643 43.4238 50.2886 42.9925 53.0774 41.6582C53.7872 41.3172 54.4593 40.9033 55.1013 40.4444C55.2092 40.3666 55.322 40.2914 55.4374 40.2237C55.5603 40.151 55.6932 40.1158 55.801 40.2437C55.9314 40.3992 55.8362 40.5246 55.7258 40.6375C55.6681 40.6977 55.6029 40.7529 55.5352 40.8005C52.4304 43.0125 48.9869 43.943 45.1874 43.5292C42.4161 43.2257 39.9458 42.1924 37.7538 40.4845C37.4754 40.2688 37.2196 40.0256 36.9513 39.7973C36.866 39.7246 36.7958 39.6168 36.6127 39.6619C36.5249 40.0883 36.55 40.5372 36.56 40.9836C36.5651 41.1918 36.7431 41.2996 36.8836 41.41C37.7162 42.062 38.594 42.6514 39.537 43.1304C41.1019 43.9254 42.7497 44.4646 44.4902 44.7229C46.7975 45.0665 49.0697 44.906 51.3068 44.2665C52.1118 44.0358 52.8968 43.7373 53.6542 43.3762C53.7746 43.3185 53.9025 43.2759 54.0304 43.2433C54.1383 43.2182 54.226 43.2734 54.2837 43.3661C54.3464 43.469 54.3013 43.5593 54.2411 43.6445C54.1809 43.7323 54.0856 43.7649 53.9953 43.8101C52.2398 44.6527 50.3939 45.1618 48.4578 45.3575C45.8395 45.6258 43.3089 45.2471 40.8587 44.3142C39.5069 43.7975 38.2379 43.1204 37.0892 42.2326C37.009 42.1724 36.9312 42.1072 36.846 42.057C36.693 41.9667 36.5776 41.9993 36.5726 42.1899C36.5626 42.541 36.5575 42.8947 36.5701 43.2458C36.5776 43.4765 36.7782 43.5743 36.9438 43.6847C38.1049 44.4596 39.3313 45.1117 40.6455 45.5882C44.2845 46.9149 47.9737 47.0629 51.7106 46.0296C51.9187 45.9719 52.1219 45.8766 52.3451 45.8866C52.4504 45.8917 52.5457 45.9318 52.5833 46.0396C52.6285 46.17 52.5758 46.2779 52.4579 46.3305C52.3075 46.4008 52.147 46.4559 51.9864 46.5011C50.271 47.0027 48.5205 47.2459 46.7298 47.2334C43.4368 47.2108 40.3771 46.3481 37.5331 44.7029C37.3024 44.57 37.0842 44.4095 36.851 44.2765C36.698 44.1888 36.5801 44.2464 36.5726 44.4245C36.5575 44.743 36.5575 45.0615 36.56 45.38C36.56 45.6007 36.7331 45.6885 36.8936 45.7838C38.0197 46.4559 39.2059 47.0002 40.4449 47.4265C42.7672 48.2266 45.1573 48.5827 47.6126 48.4974C48.385 48.4698 49.1474 48.3695 49.9124 48.2667C50.0127 48.2541 50.1105 48.2266 50.2083 48.219C50.3889 48.2065 50.6146 48.1488 50.6623 48.3996C50.7099 48.6479 50.4942 48.6905 50.3111 48.7281C50.0152 48.7858 49.7193 48.841 49.4208 48.8912C48.9894 48.9639 48.9869 48.9614 48.9242 49.3752C48.8866 49.6235 48.8565 49.8743 48.8139 50.1201C48.7938 50.2354 48.7713 50.3508 48.7236 50.4561C48.6734 50.569 48.5781 50.6417 48.4402 50.6016C48.3273 50.569 48.2722 50.4787 48.2747 50.3759C48.2847 50.1426 48.3023 49.9069 48.3399 49.6762C48.4452 48.9915 48.4502 48.9915 47.733 49.0065C47.7004 49.0065 47.6652 49.0065 47.6326 49.0065C47.1712 49.0241 47.1737 49.0316 47.0959 49.4805C46.9455 50.3558 46.7824 51.2286 46.5066 52.0738C46.469 52.1841 46.4338 52.297 46.3787 52.3998C46.3135 52.5177 46.1981 52.5478 46.0752 52.5101C45.9623 52.475 45.9398 52.3722 45.9297 52.2694C45.9147 52.1314 45.9799 52.0085 46.0175 51.8806C46.2533 51.0931 46.4313 50.2906 46.5442 49.478C46.5994 49.0793 46.5668 49.0467 46.1705 49.0141C45.373 48.9488 45.3529 48.9463 45.2125 49.7464C44.9767 51.0906 44.5654 52.3797 44.0036 53.6212C43.9209 53.8042 43.8231 53.9798 43.7202 54.1528C43.6525 54.2657 43.5422 54.3058 43.4168 54.2557C43.2839 54.203 43.2513 54.0826 43.2788 53.9647C43.3089 53.8368 43.3691 53.714 43.4243 53.5936C44.0187 52.3095 44.4651 50.9803 44.6983 49.5834C44.7209 49.4504 44.7385 49.3175 44.7535 49.1846C44.7736 49.0191 44.6908 48.9338 44.5328 48.9137C44.5153 48.9137 44.5002 48.9087 44.4827 48.9062C43.64 48.846 43.6049 48.4899 43.3917 49.6461C43.0105 51.7402 42.1478 53.6362 40.9239 55.3692C40.8562 55.4645 40.7834 55.5573 40.7057 55.6451C40.5903 55.778 40.4524 55.9059 40.2768 55.7855C40.0937 55.6601 40.1765 55.4921 40.2768 55.3441C40.3696 55.2037 40.4649 55.0682 40.5627 54.9303C41.7038 53.3403 42.4362 51.5722 42.855 49.6686C42.865 49.6185 42.8776 49.5708 42.8851 49.5207C43.0556 48.6529 42.9252 48.4949 42.0424 48.4623C41.8769 48.4573 41.7891 48.51 41.7565 48.668C41.7064 48.9137 41.6537 49.1595 41.6035 49.4053C41.0718 52.0336 39.8003 54.2507 37.8792 56.1065C37.5532 56.42 37.2171 56.7235 36.851 56.9893C36.7707 57.047 36.6879 57.1097 36.6002 57.1574C36.4672 57.2276 36.3343 57.2201 36.239 57.0947C36.1387 56.9618 36.1989 56.8389 36.3118 56.7436C36.4898 56.5906 36.6704 56.4426 36.851 56.2921C39.2059 54.3409 40.6179 51.843 41.1747 48.8485C41.2775 48.2867 41.2424 48.2491 40.6881 48.0686C39.9558 47.8303 40.0561 47.878 39.9458 48.515C39.4066 51.6474 37.8466 54.1579 35.2208 55.9335C32.2664 57.9323 29.0211 58.3787 25.6153 57.3254C21.2716 55.9836 18.1793 51.9709 17.9335 47.4892C17.7479 44.1135 18.879 41.2419 21.2615 38.8594C22.0716 38.0493 23.0071 37.3972 24.0303 36.8756C24.1607 36.8079 24.3187 36.7778 24.394 36.6248C24.3488 36.4618 24.2109 36.5069 24.1056 36.5044C23.5689 36.4969 23.0322 36.5044 22.498 36.4969C22.2522 36.4944 22.044 36.5771 21.8484 36.7201C19.7242 38.2575 18.1993 40.2438 17.3291 42.7266C16.4839 45.1393 16.3961 47.587 17.0783 50.0448C17.7604 52.4976 19.0696 54.5667 21.0333 56.2094C21.239 56.3824 21.4496 56.5479 21.6528 56.721C21.7782 56.8288 21.8534 56.9643 21.7305 57.1122C21.6101 57.2552 21.4597 57.2201 21.3242 57.1223C20.9681 56.8715 20.6295 56.5981 20.311 56.2997C17.931 54.0876 16.5065 51.3715 16.1779 48.1438C15.8168 44.6001 16.7748 41.4099 19.0194 38.6211C19.5586 37.9515 20.1831 37.3721 20.8302 36.8129C20.9029 36.7502 21.0158 36.6975 20.9556 36.5771C20.9129 36.4919 20.8176 36.5019 20.7324 36.4994C20.6998 36.4994 20.6647 36.4994 20.632 36.4994C19.0621 36.4969 19.3906 36.2937 18.3272 37.5051C16.3184 39.7948 15.1823 42.4658 14.9064 45.4979C14.5904 48.9589 15.4607 52.1038 17.4444 54.9504C17.5598 55.1159 17.6752 55.2814 17.7755 55.452C17.8407 55.5623 17.8357 55.6852 17.7329 55.7705C17.63 55.8557 17.5046 55.8457 17.4118 55.7579C17.2814 55.63 17.156 55.4921 17.0507 55.3416C14.8236 52.1716 13.9383 48.6529 14.4349 44.8183C14.8236 41.8112 16.0701 39.1754 18.1116 36.9257C18.1567 36.8756 18.2119 36.8329 18.247 36.7778C18.3197 36.6599 18.3247 36.5345 18.1542 36.5194C17.7379 36.4868 17.319 36.4567 16.9002 36.5194C16.7347 36.5445 16.6494 36.6774 16.5566 36.7953C14.7559 39.0625 13.6123 41.6156 13.2035 44.4872C12.7471 47.6773 13.2211 50.7295 14.5854 53.6462C14.7534 54.0074 14.7509 54.2055 14.5603 54.2557C14.2568 54.3359 14.2017 54.0626 14.1114 53.882C13.5722 52.796 13.1834 51.6574 12.9176 50.4762C12.3508 47.9507 12.3433 45.4227 12.9527 42.9047C13.4693 40.7804 14.3697 38.8293 15.6688 37.0662C15.7716 36.9257 15.9923 36.7928 15.8895 36.5997C15.7942 36.4216 15.5534 36.5169 15.3804 36.4893C15.3478 36.4843 15.3127 36.4919 15.2801 36.4893C14.7183 36.4216 14.3822 36.6599 14.0712 37.1489C11.8718 40.5949 10.9664 44.3493 11.305 48.4071C11.4028 49.5758 11.6185 50.732 11.9621 51.8581C12.0022 51.986 12.0448 52.1164 12.0549 52.2468C12.0624 52.3597 12.0448 52.4876 11.8918 52.5202C11.7614 52.5478 11.6436 52.5051 11.5934 52.3898C11.5081 52.1916 11.4429 51.981 11.3827 51.7728C10.8435 49.8542 10.6203 47.8955 10.7156 45.9042C10.8661 42.7417 11.784 39.8174 13.4493 37.1239C13.5496 36.9608 13.7778 36.7953 13.6675 36.5997C13.5596 36.4066 13.3013 36.5044 13.1082 36.5069C12.2379 36.5119 12.4085 36.369 11.952 37.1815C10.2717 40.1635 9.43405 43.3687 9.42151 46.792C9.419 47.8002 9.48922 48.8009 9.65976 49.794C9.68986 49.9746 9.69989 50.1602 9.7049 50.3433C9.70741 50.4687 9.64973 50.574 9.50928 50.5941C9.36884 50.6141 9.27605 50.5289 9.24344 50.4135C9.18325 50.1878 9.14312 49.957 9.1055 49.7263C9.02023 49.2197 8.72764 48.9213 8.22772 48.831C7.99699 48.7883 7.76626 48.7432 7.54055 48.688C7.40261 48.6529 7.28975 48.5701 7.31483 48.4046C7.33991 48.2416 7.47032 48.1864 7.61327 48.2015C7.89667 48.2316 8.17506 48.2867 8.45846 48.3194C8.87728 48.367 8.93497 48.3219 8.91239 47.898C8.86725 47.0829 9.01773 47.113 8.14747 46.9851C7.3675 46.8698 6.60006 46.6892 5.84768 46.4559C5.45895 46.3356 5.31098 46.1926 5.40879 46.0296C5.55676 45.7813 5.78749 45.8841 5.99063 45.9443C6.68282 46.1475 7.38254 46.3155 8.09229 46.4409C8.25782 46.471 8.42334 46.4911 8.59138 46.5061C8.77195 46.5211 8.87728 46.4384 8.88731 46.2503C8.88731 46.2177 8.89233 46.1826 8.89233 46.15C8.89735 45.2847 9.06789 45.3173 8.14245 45.1568C6.70038 44.9085 5.3185 44.4471 3.99932 43.8075C3.92408 43.7724 3.84382 43.7373 3.78363 43.6847C3.69084 43.6044 3.63065 43.4966 3.69335 43.3712C3.75354 43.2533 3.86138 43.2056 3.98929 43.2407C4.10214 43.2708 4.21249 43.3135 4.31783 43.3636C5.57933 43.9655 6.90102 44.3894 8.27788 44.6352C8.34309 44.6477 8.4083 44.6628 8.47601 44.6728C8.94249 44.743 8.98011 44.7154 9.05033 44.2439C9.16319 43.4815 9.15817 43.5041 8.39074 43.3611C6.43956 42.9975 4.63132 42.2727 2.98611 41.1566C2.79299 41.0262 2.59236 40.8983 2.40426 40.7579C2.11334 40.5397 2.0381 40.3691 2.17102 40.2362C2.37417 40.0356 2.54721 40.2011 2.70271 40.314C3.2996 40.7478 3.92157 41.1441 4.57866 41.4802C5.89784 42.1598 7.28473 42.6464 8.75439 42.8796C9.21836 42.9523 9.21836 42.9448 9.34376 42.5109C9.35379 42.4783 9.36633 42.4482 9.37386 42.4156C9.54691 41.756 9.53436 41.7535 8.85471 41.6256C6.03326 41.0889 3.62563 39.7923 1.67194 37.6806C1.42114 37.4098 1.19041 37.1239 0.952158 36.843C0.896983 36.7803 0.844316 36.7126 0.806697 36.6398C0.743998 36.5245 0.759045 36.4116 0.856855 36.3213C0.959681 36.226 1.07756 36.236 1.17537 36.3213C1.28822 36.4191 1.39105 36.5295 1.48635 36.6474C3.43001 39.0525 5.93546 40.5146 8.96506 41.099C9.06287 41.119 9.16319 41.1366 9.26351 41.1466C9.65475 41.1867 9.67732 41.1692 9.80773 40.8005C9.99499 40.2722 9.81526 39.9587 9.26852 39.86C6.10349 39.2832 3.57046 37.6881 1.85502 34.972C-0.47988 31.2753 -0.612804 27.4231 1.4688 23.5709C3.07388 20.599 5.62196 18.7581 8.9149 18.0985C12.2179 17.439 15.2726 18.1412 17.9636 20.2328C19.2401 21.226 20.2383 22.4473 20.9882 23.8794C21.0584 24.0123 21.1361 24.1427 21.2139 24.2706C21.239 24.3107 21.2841 24.3358 21.3167 24.3659C21.4396 24.3007 21.4195 24.1904 21.4195 24.0976C21.4246 23.5458 21.4195 22.9916 21.4296 22.4398C21.4346 22.189 21.3443 21.9859 21.2039 21.7903C19.7743 19.8366 17.9586 18.3945 15.6989 17.4891C14.001 16.8095 12.2505 16.5286 10.4372 16.6264C8.24779 16.7443 6.2339 17.4164 4.39557 18.6127C3.27703 19.34 2.29893 20.2203 1.46629 21.2661C1.21299 21.5846 1.03241 21.6548 0.904507 21.5018C0.706378 21.2661 0.912031 21.0955 1.04244 20.935C3.20681 18.2967 5.95301 16.679 9.34878 16.2025C12.09 15.8188 14.6932 16.2778 17.1435 17.5493C18.5856 18.2967 19.837 19.2999 20.8929 20.5388C21.0208 20.6868 21.1236 20.8648 21.3669 20.9777C21.4622 20.3958 21.4496 19.8491 21.3945 19.3049C21.3794 19.1544 21.254 19.044 21.1437 18.9362C18.736 16.6088 15.8895 15.2144 12.5414 14.8859C9.06538 14.5423 5.89784 15.3925 3.01871 17.3562C2.86823 17.459 2.71023 17.5568 2.54722 17.6421C2.45191 17.6923 2.34909 17.6722 2.27385 17.5844C2.18607 17.4791 2.19359 17.3612 2.27385 17.2634C2.33655 17.1882 2.41931 17.1255 2.49956 17.0653C4.47583 15.6232 6.68283 14.7454 9.10049 14.4119C11.7464 14.0482 14.312 14.3742 16.7874 15.395C18.1943 15.9743 19.4684 16.7668 20.632 17.7449C20.8252 17.9054 21.0183 18.0659 21.2114 18.2239C21.234 18.2415 21.2741 18.2365 21.3644 18.254C21.4797 17.7825 21.4271 17.306 21.3945 16.8345C21.3844 16.6941 21.249 16.6189 21.1437 16.5361C18.9066 14.758 16.3861 13.6294 13.5521 13.193C11.1219 12.8193 8.74185 13.0149 6.39441 13.7172C5.71977 13.9178 5.0652 14.1786 4.42818 14.4821C4.04948 14.6601 3.88144 14.6576 3.8037 14.4896C3.71592 14.304 3.82878 14.1661 4.23005 13.978C5.948 13.1779 7.75623 12.6989 9.64221 12.5384C13.3364 12.2249 16.7673 13.035 19.9148 15.0062C20.2985 15.247 20.6571 15.5229 21.0333 15.7737C21.2992 15.9517 21.3769 15.9116 21.407 15.6006C21.4145 15.5329 21.4145 15.4677 21.417 15.4C21.4271 14.3291 21.5148 14.5272 20.6847 14.0006C17.7855 12.1497 14.608 11.2293 11.1696 11.2042C9.4817 11.1917 7.82896 11.4249 6.20631 11.8939C6.06336 11.9365 5.91539 11.9691 5.76492 11.9867C5.6345 11.9992 5.54171 11.9265 5.5066 11.7961C5.4765 11.6807 5.5392 11.603 5.632 11.5478C5.77746 11.46 5.93546 11.4124 6.09847 11.3672C8.75439 10.6223 11.4429 10.4819 14.164 10.9283C16.5942 11.3271 18.8464 12.1898 20.923 13.5165C20.9932 13.5617 21.0634 13.6068 21.1387 13.6469C21.2691 13.7197 21.3769 13.6996 21.3945 13.5391C21.4321 13.188 21.4396 12.8369 21.4045 12.4858C21.3869 12.2952 21.2289 12.2124 21.0835 12.1271C19.6916 11.307 18.2244 10.655 16.672 10.2035C14.5804 9.59409 12.4436 9.32323 10.2642 9.41602C9.56195 9.44612 8.85972 9.51634 8.16502 9.6292C8.01705 9.65177 7.86658 9.66932 7.7161 9.67685C7.5882 9.68437 7.48286 9.62669 7.45026 9.49628C7.41013 9.33577 7.50042 9.22542 7.64086 9.19281C7.91674 9.12761 8.20014 9.08247 8.48103 9.03732C8.98262 8.95707 8.98011 8.95957 9.05786 8.46802C9.09798 8.20217 9.14062 7.93884 9.18827 7.6755C9.21585 7.52503 9.31367 7.43976 9.47167 7.44979C9.64722 7.46233 9.69487 7.58773 9.68233 7.73068C9.66227 7.98147 9.61964 8.22725 9.59456 8.47805C9.55945 8.84923 9.59957 8.89186 9.9557 8.90189C9.9883 8.90189 10.0234 8.90189 10.056 8.90189C10.8937 8.86929 10.8235 8.89688 10.9288 8.14449C11.0266 7.44728 11.1996 6.76261 11.3827 6.08546C11.4229 5.94251 11.478 5.79956 11.5457 5.66664C11.6059 5.54625 11.7238 5.52368 11.8492 5.56381C11.9621 5.60143 12.0047 5.69422 11.9922 5.79956C11.9771 5.93248 11.9445 6.06289 11.9094 6.1908C11.7088 6.90055 11.5508 7.62033 11.4454 8.35014C11.3802 8.8091 11.4078 8.85173 11.8467 8.88434C12.6116 8.94202 12.6217 8.94202 12.7571 8.16957C12.9928 6.84286 13.3916 5.56883 13.9458 4.34244C14.0085 4.2045 14.0788 4.07158 14.1565 3.94367C14.2217 3.83834 14.3195 3.75809 14.45 3.81075C14.5954 3.87094 14.638 4.00136 14.6004 4.14431C14.5703 4.25717 14.5202 4.36501 14.47 4.47034C13.9283 5.66664 13.5371 6.91058 13.2838 8.19716C13.2712 8.26237 13.2537 8.32757 13.2436 8.39278C13.1634 8.91443 13.1935 8.95456 13.7176 9.02729C14.4274 9.12761 14.4148 9.1251 14.5503 8.39779C14.8888 6.58204 15.5459 4.88917 16.5341 3.32672C16.7046 3.05837 16.8802 2.79252 17.0607 2.5317C17.1159 2.45144 17.1861 2.36868 17.2664 2.31601C17.3692 2.2483 17.4896 2.24328 17.5899 2.33608C17.6727 2.41382 17.6827 2.51665 17.63 2.61195C17.5397 2.77246 17.4419 2.92795 17.3366 3.07843C16.2055 4.69606 15.4782 6.48423 15.092 8.41284C14.929 9.23294 14.944 9.25802 15.7441 9.39847C16.1804 9.47621 16.1905 9.47621 16.2632 9.03983C16.5842 7.06858 17.3391 5.2779 18.4827 3.65024C19.1423 2.71227 19.9323 1.89468 20.8101 1.15985C20.9129 1.07458 21.0233 0.996832 21.1361 0.924101C21.2515 0.851371 21.3619 0.871434 21.4521 0.971752C21.5475 1.07709 21.5399 1.19998 21.4521 1.29026C21.2791 1.47083 21.091 1.63887 20.9004 1.80188C18.6633 3.74555 17.3165 6.18829 16.7999 9.09751C16.7071 9.61415 16.7422 9.65679 17.2338 9.81729C18.0087 10.0706 17.9109 10.0505 18.0388 9.34329C18.6859 5.77197 20.602 3.07843 23.777 1.34042C26.295 -0.0389517 29.0111 -0.349938 31.7724 0.389908C35.3863 1.35798 37.9996 3.62516 39.3188 7.11623C40.806 11.0462 40.2016 14.763 37.5733 18.0935C36.56 19.3751 35.2985 20.3582 33.8314 21.073C33.7311 21.1231 33.6082 21.1532 33.5706 21.2912C33.6408 21.4216 33.7737 21.384 33.879 21.384C34.4333 21.389 34.985 21.384 35.5393 21.3915C35.77 21.394 35.9606 21.3112 36.1412 21.1783C38.9451 19.1118 40.6931 16.3856 41.1922 12.9246C41.7916 8.75142 40.5025 5.19514 37.5482 2.22071C37.2899 1.95989 36.9989 1.73166 36.7256 1.48337C36.6503 1.41566 36.5751 1.34794 36.5149 1.2702C36.4497 1.18493 36.4447 1.0821 36.5149 0.991816C36.5952 0.886482 36.7055 0.843847 36.8234 0.916577C36.9789 1.01439 37.1344 1.11721 37.2723 1.2376C40.2919 3.87847 41.8995 7.19147 41.8669 11.2192C41.8368 15.0062 40.3721 18.1763 37.5582 20.7194C37.4203 20.8422 37.2823 20.9626 37.1469 21.088C37.0867 21.1432 37.0115 21.1959 37.0516 21.2962C37.0817 21.3689 37.1519 21.3815 37.2171 21.3815C37.6535 21.3865 38.0874 21.3865 38.5238 21.3865C38.7495 21.3865 38.8824 21.226 39.0229 21.083C40.4173 19.6685 41.4932 18.0484 42.2029 16.19C42.9879 14.136 43.2914 12.0143 43.0857 9.82482C42.87 7.53255 42.1578 5.40832 40.9013 3.47469C40.7182 3.1938 40.5301 2.91792 40.3496 2.63452C40.2818 2.52668 40.2818 2.4063 40.3947 2.32103C40.4975 2.24328 40.6154 2.24328 40.7232 2.31852C40.8938 2.4364 40.9891 2.61948 41.1019 2.785C42.2681 4.51549 43.0682 6.39645 43.4393 8.45799C44.0588 11.924 43.4945 15.1968 41.8292 18.2791C41.3277 19.2071 40.7182 20.0723 39.9909 20.8473C39.8755 20.9702 39.6473 21.093 39.7426 21.2937C39.8204 21.4592 40.0461 21.3915 40.2041 21.389C41.4255 21.384 41.1396 21.5043 41.8067 20.604C43.6952 18.0584 44.7209 15.1994 44.9165 12.0368C45.0745 9.46117 44.6181 7.00087 43.5823 4.64088C43.5221 4.50295 43.4569 4.36752 43.4017 4.22456C43.344 4.07409 43.3365 3.91609 43.497 3.8258C43.6776 3.72548 43.788 3.8559 43.8557 3.99383C44.0262 4.33742 44.2018 4.68352 44.3397 5.04216C45.7793 8.79907 45.8696 12.5936 44.6131 16.4107C44.0914 17.9982 43.3139 19.4579 42.3358 20.8147C42.233 20.9576 42.0224 21.093 42.1152 21.2836C42.2104 21.4768 42.4487 21.384 42.6218 21.384C43.6049 21.3915 43.4293 21.4868 43.9685 20.6441C46.0928 17.3286 46.9555 13.6921 46.7072 9.77967C46.632 8.59091 46.4188 7.41969 46.0928 6.27105C46.0476 6.11054 46.0125 5.94502 45.9924 5.782C45.9799 5.67416 46.0351 5.58638 46.1479 5.55378C46.2533 5.52368 46.3611 5.54124 46.4138 5.63905C46.4865 5.76946 46.5517 5.9074 46.5918 6.05286C47.2615 8.42037 47.4345 10.8255 47.1586 13.2707C46.9129 15.4426 46.2809 17.4966 45.2902 19.4403C45.0244 19.962 44.7059 20.456 44.4149 20.9651C44.2193 21.3062 44.2519 21.3639 44.6281 21.3915C45.6012 21.4617 45.6363 21.4442 46.0928 20.619C48.1668 16.8596 48.9067 12.8419 48.4101 8.58589C48.3775 8.30249 48.2872 8.02913 48.2998 7.74071C48.3073 7.60277 48.3248 7.46233 48.5079 7.4523C48.6659 7.44226 48.7662 7.52754 48.7938 7.67801C48.8465 7.97395 48.8992 8.2724 48.9242 8.57335C48.9493 8.84923 49.0546 9.00221 49.3506 9.02227C49.6014 9.03732 49.8472 9.0925 50.0955 9.13764C50.1933 9.1552 50.2936 9.17526 50.3839 9.21789C50.5017 9.27056 50.5594 9.37339 50.5243 9.50631C50.4967 9.61666 50.4115 9.66682 50.3036 9.67936C50.118 9.70193 49.9374 9.65428 49.7569 9.62418C49.0722 9.51383 49.0521 9.5339 49.0847 10.2411C49.0873 10.3089 49.0998 10.3766 49.0948 10.4418C49.0747 10.7151 49.2076 10.818 49.471 10.8581C50.3011 10.981 51.1237 11.1365 51.9237 11.3898C52.0667 11.4349 52.2071 11.4926 52.3426 11.5553C52.4404 11.603 52.4931 11.6882 52.4655 11.8036C52.4329 11.9365 52.3401 12.0092 52.2097 11.9942C52.0617 11.9791 51.9112 11.9465 51.7683 11.9039C51.0786 11.6907 50.3713 11.5503 49.6591 11.4324C49.16 11.3497 49.0923 11.3998 49.0923 11.8989C49.0923 12.5836 48.8966 12.5986 49.7744 12.7416C51.1538 12.9673 52.4755 13.3961 53.7445 13.9805C53.8499 14.0281 53.9602 14.0758 54.058 14.136C54.1834 14.2137 54.2436 14.3316 54.1859 14.4796C54.1232 14.6376 53.9853 14.6476 53.8499 14.61C53.7219 14.5724 53.6016 14.5122 53.4787 14.457C52.2423 13.8802 50.9456 13.4914 49.6014 13.2532C49.5036 13.2356 49.4007 13.2281 49.3029 13.2156C49.0772 13.1905 48.9568 13.2883 48.9368 13.519C48.8615 14.3993 48.6609 14.3742 49.6315 14.5523C51.7181 14.9385 53.6342 15.7586 55.3647 16.995C55.4725 17.0728 55.5828 17.153 55.6782 17.2458C55.7735 17.3361 55.7885 17.4565 55.7183 17.5669C55.643 17.6822 55.5227 17.7023 55.4098 17.6396C55.2192 17.5343 55.0361 17.4189 54.8555 17.296C53.2304 16.1749 51.4422 15.4527 49.5111 15.0715C48.7261 14.916 48.6283 15.0012 48.538 15.8138C48.5029 16.1423 48.5305 16.19 48.864 16.2427C50.2509 16.4533 51.5651 16.8972 52.8065 17.5418C54.4367 18.387 55.8086 19.5481 56.9622 20.9727C56.9723 20.9852 56.9848 20.9977 56.9923 21.0128C57.0901 21.1808 57.2857 21.3639 57.055 21.5344C56.8318 21.7025 56.6889 21.4893 56.566 21.3338C55.3822 19.834 53.9251 18.6804 52.2097 17.8478C51.1488 17.3311 50.0328 16.9775 48.8691 16.7794C48.37 16.6941 48.3223 16.7317 48.1393 17.2283C48.1167 17.291 48.0916 17.3537 48.0715 17.4189C47.9236 17.8804 47.9461 17.9355 48.4327 18.0032C50.0177 18.2265 51.4798 18.7807 52.8241 19.6409C54.2436 20.5488 55.3922 21.725 56.2801 23.1571C57.06 24.4136 57.5767 25.7654 57.7949 27.225C58.161 29.6702 57.8024 31.9976 56.6236 34.1845C55.5527 36.1733 54.0154 37.6982 52.0266 38.7616C50.8052 39.4161 49.496 39.8249 48.1117 39.9679C46.5943 40.1259 45.0971 40.0205 43.6375 39.5666C41.5709 38.9271 39.8254 37.786 38.4184 36.1407C37.8165 35.436 37.3074 34.6711 36.8986 33.8384C36.8434 33.7231 36.8133 33.5801 36.6202 33.4873L36.6152 33.4823ZM21.3192 11.5704C21.3468 11.5051 21.3819 11.4625 21.3844 11.4149C21.3995 11.2493 21.407 11.0813 21.4145 10.9133C21.5048 8.7464 22.3099 6.88048 23.9526 5.46851C26.1922 3.54742 28.7653 3.06338 31.5642 4.03145C35.1405 5.26536 37.4203 9.22542 36.224 13.2632C35.0854 17.1004 31.2382 19.3325 27.3233 18.4772C26.8844 18.3819 26.7188 18.2641 26.7966 18.0835C26.9471 17.7374 27.2305 17.9305 27.4537 17.9681C27.9829 18.0584 28.5145 18.1412 29.0512 18.1337C31.3761 18.0985 33.2295 17.0803 34.6164 15.2746C35.9857 13.4914 36.3644 11.4224 35.7525 9.27307C34.975 6.54944 33.1267 4.84904 30.3428 4.24212C27.6192 3.64774 24.6949 4.87161 23.15 7.19147C22.2748 8.50564 21.9412 9.95523 21.9462 11.5252C21.9663 17.2559 21.9588 22.9865 21.9562 28.7172C21.9562 29.442 22.0415 30.1543 22.2045 30.859C22.2321 30.9719 22.2547 31.0872 22.2647 31.2026C22.2722 31.3104 22.2246 31.4032 22.1168 31.4383C21.9888 31.481 21.881 31.4308 21.8183 31.318C21.7707 31.2327 21.7406 31.1324 21.713 31.0371C21.6001 30.6333 21.5174 30.2245 21.4697 29.8057C21.3719 28.9204 21.4346 28.03 21.4195 27.1422C21.4145 26.7535 21.3719 26.3748 21.254 26.0036C20.9531 25.0757 20.5869 24.1828 20.0502 23.3602C18.1542 20.4485 15.4782 18.7356 12.0248 18.4697C7.85153 18.1512 4.50342 19.7864 2.23874 23.3226C0.0969484 26.6657 -0.0359737 30.222 1.7522 33.7532C3.33722 36.8806 5.96555 38.7139 9.41399 39.3484C10.2491 39.5014 10.2316 39.6268 10.6078 38.596C10.6128 38.581 10.6178 38.5634 10.6253 38.5484C10.7181 38.3427 10.6579 38.2324 10.4297 38.2073C10.1137 38.1722 9.79519 38.1446 9.48421 38.0819C7.054 37.5878 5.06269 36.394 3.60055 34.3651C2.05816 32.2258 1.48635 29.8332 2.00801 27.2676C2.77042 23.4982 5.06269 21.0278 8.77446 20.0021C11.8517 19.1519 14.6932 19.824 17.1034 21.8805C19.8671 24.2405 20.8553 27.2952 20.1982 30.874C20.1706 31.022 20.1204 31.165 20.0653 31.3054C20.0201 31.4183 19.9399 31.5136 19.7969 31.4785C19.6439 31.4408 19.5787 31.328 19.6013 31.175C19.6364 30.9443 19.6815 30.7135 19.7242 30.4828C20.1355 28.178 19.6891 26.0337 18.395 24.1026C16.2983 20.9752 12.6292 19.6585 9.22087 20.4309C6.90603 20.9551 5.0652 22.2141 3.78614 24.2004C2.35912 26.4124 2.01051 28.8251 2.72779 31.3781C3.66827 34.7238 6.70038 37.2819 10.1614 37.6305C11.1645 37.7333 11.0191 37.7383 11.4605 36.9182C11.641 36.5821 11.6009 36.5295 11.2147 36.5119C10.6629 36.4893 10.1087 36.4693 9.56697 36.3514C6.22136 35.6166 3.85135 32.9256 3.59052 29.5122C3.40243 27.0645 4.26767 24.9904 6.05835 23.3427C7.5255 21.9934 9.2936 21.3689 11.3025 21.4166C12.7345 21.4492 14.0637 21.8203 15.2349 22.6229C17.8181 24.391 18.9291 26.8663 18.6182 29.9762C18.5856 30.2897 18.4953 30.6007 18.4225 30.9092C18.3899 31.0496 18.2971 31.1549 18.1366 31.1349C17.936 31.1098 17.9134 30.9543 17.9285 30.7963C17.9385 30.6809 17.9736 30.5656 17.9937 30.4502C18.4451 27.9523 17.8532 25.7679 16.035 23.9546C13.0631 20.9902 7.90169 21.236 5.30094 25.0255C4.32284 26.4525 3.95417 28.0376 4.15732 29.7555C4.40811 31.8772 5.43888 33.54 7.17438 34.7564C8.43588 35.6417 9.87043 35.9953 11.4028 35.9852C12.9778 35.9777 14.5528 35.9702 16.1278 35.9702C20.2007 35.9727 24.2736 35.9827 28.344 35.9878C29.2343 35.9878 30.1171 35.9025 30.9849 35.6868C31.0651 35.6667 31.1479 35.6417 31.2281 35.6291C31.3736 35.604 31.509 35.6341 31.5592 35.7846C31.6194 35.9652 31.504 36.0655 31.3535 36.1307C31.2758 36.1633 31.1955 36.1909 31.1153 36.2085C30.7065 36.2962 30.2977 36.384 29.8814 36.4342C28.9609 36.5395 28.0405 36.4868 27.1201 36.5044C26.8693 36.5094 26.6185 36.5119 26.3727 36.5771C24.7777 37.006 23.3256 37.7208 22.0967 38.8268C19.5436 41.1265 18.2645 43.9881 18.4652 47.4491C18.6984 51.4894 21.2766 55.1711 25.3319 56.6658C28.0506 57.669 30.7667 57.5887 33.395 56.3398C36.7306 54.7548 38.7294 52.1139 39.3915 48.4774C39.5696 47.4942 39.5144 47.6698 38.7194 47.3287C38.3081 47.1532 38.273 47.1757 38.2228 47.6246C38.1375 48.4096 37.9996 49.1821 37.7187 49.9244C36.6879 52.638 34.8396 54.5842 32.0959 55.5046C28.3967 56.7486 25.0561 55.9811 22.3074 53.1848C20.0728 50.9126 19.2978 48.1137 19.8947 44.9913C20.4189 42.2376 21.9562 40.1459 24.3764 38.7415C26.4003 37.5653 28.5898 37.2668 30.8845 37.7032C31.0676 37.7383 31.2457 37.786 31.4037 37.8838C31.494 37.9389 31.5391 38.0317 31.5065 38.1446C31.4739 38.2524 31.3987 38.3202 31.2883 38.3176C31.173 38.3151 31.0576 38.2875 30.9447 38.265C29.6481 37.9941 28.3365 37.9415 27.0549 38.275C23.6165 39.1678 21.3418 41.3146 20.5016 44.7856C19.7417 47.9256 20.5744 50.7119 22.8616 52.9917C24.7852 54.9077 27.1527 55.7228 29.8713 55.467C33.4326 55.1334 36.4923 52.5528 37.4228 49.0993C37.5833 48.4999 37.7012 47.8905 37.7187 47.2685C37.7237 47.103 37.7588 46.9124 37.5933 46.8071C37.34 46.6465 37.0742 46.5011 36.8058 46.3632C36.698 46.308 36.6002 46.3581 36.5851 46.4835C36.5625 46.6666 36.5625 46.8522 36.5525 47.0353C36.3895 49.8417 35.118 51.986 32.6677 53.3804C29.7811 55.0256 26.0718 54.514 23.6968 52.1816C20.2232 48.7708 20.8277 42.99 24.9532 40.4018C26.7389 39.2807 28.6901 38.9848 30.7491 39.4462C30.8469 39.4688 30.9472 39.4914 31.0325 39.5415C31.1353 39.6017 31.2156 39.697 31.1755 39.8324C31.1353 39.9629 31.03 40.018 30.9021 40.003C30.719 39.9804 30.5385 39.9428 30.3579 39.9102C28.7026 39.6117 27.1226 39.8249 25.6329 40.625C22.5657 42.2677 21.0484 46.1675 22.5732 49.6335C23.6516 52.0813 26.2097 53.892 29.139 53.7942C31.7197 53.7089 33.7135 52.5327 35.0678 50.3182C35.8001 49.1219 36.0258 47.7977 36.0258 46.4158C36.0233 40.7178 36.0258 35.0222 36.0183 29.3241C36.0183 28.4865 35.9606 27.6488 35.7174 26.8388C35.6973 26.7761 35.6797 26.7083 35.6823 26.6431C35.6823 26.5403 35.7023 26.435 35.8102 26.3923C35.9331 26.3422 36.0384 26.3848 36.1237 26.4801C36.2039 26.5704 36.2315 26.6858 36.2616 26.7986C36.3569 27.1548 36.4221 27.5159 36.4672 27.8821C36.5826 28.8351 36.54 29.7906 36.5525 30.7436C36.5575 31.1324 36.6077 31.5111 36.7206 31.8822C37.4002 34.1369 38.6692 35.9903 40.5602 37.3922C42.9403 39.1578 45.6163 39.7973 48.538 39.3484C50.5594 39.0374 52.3451 38.1797 53.8624 36.8129C55.8738 34.9996 57.06 32.7324 57.3409 30.0414C57.5967 27.5936 57.06 25.3064 55.6982 23.2398C53.9953 20.6542 51.6128 19.0892 48.5606 18.5575C47.6803 18.4045 47.58 18.4873 47.3367 19.3425C47.264 19.6008 47.2991 19.656 47.5825 19.7036C47.6477 19.7137 47.7154 19.7137 47.7831 19.7212C49.7794 19.9319 51.5501 20.6893 53.0272 22.0385C55.3697 24.1828 56.4105 26.8613 56.0644 30.0314C55.6255 34.0591 52.5257 37.4248 48.3248 38.112C43.9886 38.8217 39.7577 36.3614 38.1877 32.2609C37.5231 30.5254 37.4002 28.7423 37.799 26.9265C37.8266 26.7961 37.8667 26.6657 37.9294 26.5478C37.9896 26.435 38.1049 26.3923 38.2303 26.4375C38.3382 26.4776 38.3833 26.5729 38.3758 26.6782C38.3633 26.8287 38.3382 26.9767 38.3056 27.1247C38.0372 28.3736 38.0473 29.6201 38.3281 30.864C39.1357 34.4429 42.0374 37.1214 45.6639 37.6004C48.6785 37.9991 51.2541 37.0311 53.3282 34.809C54.6524 33.3895 55.3897 31.6816 55.5628 29.753C55.7835 27.2952 55.0762 25.1133 53.4611 23.2449C51.9087 21.4467 49.9174 20.4886 47.5674 20.2353C47.1035 20.1852 46.8251 20.3206 46.6244 20.762C46.3486 21.3714 46.316 21.3789 46.9881 21.399C48.0063 21.4291 48.992 21.6172 49.9174 22.0335C53.263 23.5408 54.9534 27.0946 54.2612 30.4653C53.4937 34.2146 49.8547 37.159 45.4984 36.3815C41.2198 35.6191 38.5213 31.4383 39.5019 27.2099C39.5244 27.1121 39.552 27.0143 39.5972 26.924C39.6523 26.8062 39.7552 26.7485 39.8856 26.7786C40.0235 26.8087 40.0812 26.9215 40.0687 27.0419C40.0486 27.24 39.9959 27.4356 39.9633 27.6363C39.5119 30.5129 40.4047 32.8955 42.7472 34.6159C44.9567 36.2386 47.4195 36.4467 49.8823 35.2655C52.2824 34.1143 53.6292 32.123 53.8524 29.4495C54.1784 25.5321 51.1112 22.1012 47.1812 21.9483C46.6295 21.9257 46.0752 21.9357 45.5235 21.9357C40.9138 21.9357 36.3042 21.9257 31.6971 21.9432C30.541 21.9483 29.3848 21.8479 28.2311 21.9658C27.7797 22.011 27.3358 22.0887 26.9019 22.2266C26.7289 22.2818 26.5533 22.2743 26.4756 22.0812C26.3853 21.858 26.5634 21.7877 26.7264 21.7276C27.1226 21.5846 27.5289 21.5018 27.9477 21.4517C28.8832 21.3388 29.8237 21.3965 30.7617 21.394C31.1679 21.394 31.5617 21.3514 31.9504 21.231C34.6615 20.3858 36.7883 18.7807 38.1651 16.2903C39.9834 13.0049 40.0887 9.61666 38.3557 6.28108C36.7155 3.12107 34.0671 1.23258 30.5259 0.698385C27.401 0.226891 24.6021 1.05451 22.1895 3.07592C20.2308 4.71612 19.0395 6.83033 18.5956 9.35583C18.4953 9.92263 18.7093 10.3231 19.2376 10.5571C19.684 10.7553 19.7066 10.7427 19.7618 10.2687C19.7668 10.2361 19.7668 10.201 19.7693 10.1684C20.1405 6.38391 22.8691 3.10351 26.5558 2.16554C30.0118 1.28525 33.0765 2.10535 35.6145 4.62584C38.5213 7.515 39.1131 12.0619 37.1068 15.6232C35.0778 19.2271 30.9924 21.0504 26.9596 20.1501C26.8467 20.125 26.7314 20.0924 26.6286 20.0397C26.5232 19.987 26.4179 19.9093 26.453 19.7688C26.4931 19.6159 26.621 19.5582 26.764 19.5757C26.9621 19.6008 27.1577 19.651 27.3559 19.6861C29.4274 20.0598 31.3962 19.7638 33.2395 18.7431C36.6729 16.8421 38.2981 12.9848 37.5657 9.36085C36.8961 6.04534 34.2126 3.27907 30.9071 2.56932C26.6938 1.66645 22.508 3.87094 20.8828 7.85106C20.5392 8.69624 20.3486 9.57904 20.2759 10.4844C20.2584 10.6926 20.1932 10.9459 20.4088 11.0913C20.6947 11.2844 20.9857 11.4801 21.3368 11.5628L21.3192 11.5704Z" fill="#F9F5EC"/>
<path id="Vector_7" d="M34.1601 38.0059C34.1601 35.207 34.1601 32.4106 34.1601 29.6117C34.1601 28.6988 34.0497 27.8085 33.7563 26.9408C33.7513 26.9257 33.7463 26.9082 33.7412 26.8931C33.6886 26.705 33.5557 26.4718 33.8416 26.389C34.0974 26.3138 34.1751 26.5571 34.2453 26.7426C34.5739 27.6154 34.7043 28.5258 34.7043 29.4537C34.7093 35.2496 34.7168 41.048 34.7043 46.8439C34.6968 50.2672 31.6722 52.8705 28.2764 52.4642C24.9609 52.0654 22.3903 48.7299 23.5339 45.1034C24.2486 42.8362 25.8788 41.5019 28.2614 41.1383C29.1066 41.0104 29.9317 41.1082 30.7417 41.359C31.0828 41.4643 31.2007 41.5947 31.148 41.7703C31.0929 41.9484 30.9449 41.9709 30.5837 41.8706C28.8833 41.3941 27.2883 41.5897 25.8688 42.6782C23.4762 44.5115 23.3132 47.516 24.6048 49.5525C26.1923 52.0579 29.4727 52.6949 31.8277 51.1224C33.2371 50.182 34.0372 48.8552 34.145 47.1549C34.1902 46.4526 34.1676 45.7479 34.1676 45.0457C34.1676 42.7007 34.1676 40.3558 34.1676 38.0084H34.1626L34.1601 38.0059Z" fill="#F9F5EC"/>
<path id="Vector_8" d="M23.7984 20.0959C23.7984 22.792 23.7959 25.4905 23.7984 28.1866C23.7984 29.1271 23.8611 30.0625 24.2047 30.9554C24.2699 31.1259 24.3552 31.3366 24.1194 31.4344C23.8837 31.5322 23.8034 31.329 23.7257 31.1585C23.6078 30.8977 23.5275 30.6268 23.4648 30.3484C23.2717 29.5083 23.2592 28.6556 23.2592 27.8004C23.2592 22.2227 23.2517 16.645 23.2717 11.0673C23.2818 8.32361 25.1928 6.01379 27.8864 5.50719C29.662 5.17363 31.2922 5.57741 32.6766 6.76367C34.3393 8.19069 35.0014 10.0391 34.6001 12.1708C34.1989 14.3051 32.9048 15.7772 30.8432 16.5146C29.672 16.9334 28.4757 16.9209 27.2845 16.5748C27.1566 16.5372 27.0286 16.487 26.9208 16.4118C26.823 16.3415 26.7804 16.2237 26.8456 16.0983C26.8957 16.0005 26.986 15.9503 27.0939 15.9628C27.1917 15.9754 27.287 16.0105 27.3823 16.0381C29.4288 16.6074 31.237 16.2161 32.7217 14.6612C34.1638 13.1514 34.5375 11.3457 33.8678 9.40454C32.9023 6.60567 29.9504 5.3843 27.4124 6.18182C25.396 6.81634 23.7783 8.77755 23.7909 11.2002C23.8084 14.1646 23.7959 17.129 23.7959 20.0934H23.8009L23.7984 20.0959Z" fill="#F9F5EC"/>
<path id="Vector_9" d="M38.0025 23.2547C40.9518 23.2547 43.8987 23.2673 46.848 23.2522C50.3767 23.2347 52.9825 26.3721 52.511 29.7704C51.9818 33.5599 47.8462 35.7694 44.3952 34.1142C42.1581 33.0408 40.7988 30.6983 41.2101 27.9672C41.2578 27.6562 41.3681 27.3527 41.4685 27.0493C41.5236 26.8812 41.639 26.7383 41.8421 26.821C42.0227 26.8938 41.9851 27.0668 41.9525 27.2148C41.9249 27.3452 41.8798 27.4731 41.8446 27.601C40.8615 31.225 43.9839 34.681 47.6882 34.064C50.0883 33.6652 51.889 31.6488 52.0244 29.2111C52.1573 26.8336 50.5573 24.6165 48.2349 23.9645C47.781 23.8366 47.317 23.7764 46.8455 23.7764C41.0496 23.7764 35.2512 23.7714 29.4554 23.7739C28.5977 23.7739 27.7475 23.8466 26.9399 24.1777C26.9248 24.1852 26.9098 24.1902 26.8922 24.1952C26.7418 24.2429 26.5762 24.2855 26.496 24.1099C26.4057 23.9118 26.5562 23.8065 26.7092 23.7187C26.8998 23.6083 27.1029 23.5381 27.3161 23.483C28.0685 23.2873 28.8359 23.2422 29.6084 23.2422C32.4072 23.2422 35.2036 23.2422 38.0025 23.2422C38.0025 23.2472 38.0025 23.2522 38.0025 23.2572V23.2547Z" fill="#F9F5EC"/>
<path id="Vector_10" d="M19.949 34.1395C22.7805 34.1395 25.612 34.1345 28.4435 34.142C29.3062 34.142 30.1464 34.0241 30.9615 33.7483C31.0392 33.7207 31.1195 33.6856 31.1997 33.678C31.3226 33.668 31.438 33.6981 31.4881 33.8285C31.5383 33.9589 31.4781 34.0592 31.3753 34.132C31.2373 34.2273 31.0793 34.285 30.9163 34.3326C30.189 34.5433 29.4492 34.6712 28.6893 34.6712C22.8758 34.6712 17.0624 34.6837 11.249 34.6712C8.99181 34.6662 7.24126 33.7031 6.11519 31.7218C4.86874 29.5349 5.26499 26.7436 7.03811 24.9479C8.87393 23.0895 11.7857 22.6807 14.0228 24.0274C16.2799 25.3868 17.2956 27.9298 16.6285 30.4904C16.5834 30.6685 16.5357 30.8491 16.4254 30.9995C16.3627 31.0848 16.2799 31.1375 16.1671 31.1124C16.0266 31.0823 15.9714 30.9695 15.9815 30.8491C15.9915 30.7187 16.0392 30.5882 16.0768 30.4603C16.5382 28.8828 16.3376 27.3856 15.3896 26.0514C14.1482 24.3033 12.4227 23.4983 10.2884 23.8544C8.18425 24.2055 6.79986 25.477 6.15532 27.506C5.18975 30.5506 7.4118 34.0668 11.0559 34.127C12.9494 34.1571 14.8429 34.1395 16.7364 34.142C17.8098 34.142 18.8807 34.142 19.9541 34.142L19.949 34.1395Z" fill="#F9F5EC"/>
<path id="Vector_11" d="M32.2369 38.1013C32.2369 35.3025 32.2293 32.5036 32.2419 29.7072C32.2469 28.6614 32.0814 27.6733 31.4444 26.808C31.3491 26.6776 31.2713 26.5397 31.4318 26.4143C31.6049 26.2763 31.7503 26.3742 31.8657 26.5121C32.1616 26.8632 32.3723 27.262 32.5077 27.6984C32.6808 28.2626 32.7836 28.837 32.7836 29.4288C32.7836 35.1921 32.7836 40.9579 32.7861 46.7212C32.7861 48.1055 32.2745 49.2316 31.1309 50.0417C29.4856 51.2079 27.1482 50.8116 25.9344 49.1664C24.7281 47.5337 25.029 45.2264 26.614 43.9875C27.873 43.0019 29.2424 42.9191 30.6819 43.5361C30.8349 43.6013 30.9854 43.6815 31.0983 43.8119C31.181 43.9072 31.2237 44.0126 31.1509 44.1304C31.0782 44.2483 30.9653 44.2734 30.845 44.2232C30.7221 44.1706 30.6067 44.1004 30.4863 44.0452C29.295 43.4934 28.1263 43.531 27.063 44.3185C26.0222 45.0885 25.5908 46.1669 25.7839 47.4535C26.0247 49.0485 27.5294 50.2749 29.0894 50.1771C30.8349 50.0693 32.1842 48.7426 32.2344 47.0522C32.2594 46.1468 32.2419 45.2415 32.2419 44.3386C32.2419 42.2595 32.2419 40.1829 32.2419 38.1038L32.2369 38.1013Z" fill="#F9F5EC"/>
<path id="Vector_12" d="M25.1872 19.8234C25.1872 16.9091 25.1822 13.9949 25.1872 11.0807C25.1897 9.83671 25.6512 8.7934 26.6368 8.01594C28.904 6.22275 32.2697 7.52689 32.7161 10.391C32.9644 11.986 32.3675 13.2701 31.0358 14.1529C29.7843 14.983 28.4526 14.9755 27.1259 14.2883C27.0381 14.2432 26.9528 14.183 26.8851 14.1128C26.7798 14.0074 26.7497 13.882 26.8475 13.7516C26.9353 13.6363 27.0506 13.6488 27.1635 13.704C27.5547 13.8921 27.9359 14.0902 28.3723 14.178C29.7065 14.4438 31.1035 13.8118 31.7907 12.6055C32.4929 11.3741 32.3324 9.90443 31.432 8.86363C30.4313 7.70495 28.5905 7.26857 27.0757 8.36454C26.2004 8.99905 25.7365 9.88938 25.7314 10.9879C25.7239 12.1942 25.7189 13.4005 25.7189 14.6043C25.7189 19.2089 25.7189 23.816 25.7189 28.4206C25.7189 29.3285 25.892 30.1837 26.4236 30.9436C26.4613 30.9988 26.4989 31.054 26.529 31.1142C26.5766 31.2095 26.5816 31.3098 26.5014 31.3925C26.4061 31.4879 26.2982 31.4954 26.1804 31.4302C26.0575 31.3624 25.9822 31.2521 25.907 31.1418C25.3603 30.3317 25.1872 29.4188 25.1847 28.4658C25.1772 25.7873 25.1822 23.1063 25.1797 20.4278C25.1797 20.2272 25.1797 20.0265 25.1797 19.8259H25.1822L25.1872 19.8234Z" fill="#F9F5EC"/>
<path id="Vector_13" d="M19.9955 32.7302C16.996 32.7302 13.9965 32.7352 10.997 32.7302C9.68032 32.7277 8.63952 32.1684 7.8771 31.0975C7.03443 29.9112 6.97173 28.2159 7.74669 27.0145C8.62698 25.6477 9.896 25.0032 11.5086 25.2214C14.162 25.5825 15.5615 28.3463 14.3376 30.7338C14.2849 30.8367 14.2247 30.942 14.1545 31.0323C14.0642 31.1477 13.9363 31.1978 13.8009 31.115C13.6629 31.0323 13.6479 30.9019 13.7156 30.7664C13.7808 30.631 13.8611 30.5031 13.9263 30.3677C14.5708 29.0234 14.2423 27.471 13.1037 26.4879C12.0002 25.5349 10.3474 25.4546 9.13609 26.2973C7.96739 27.1073 7.48335 28.5419 7.90469 29.9438C8.30095 31.263 9.55743 32.196 11.0171 32.211C12.7425 32.2286 14.468 32.2185 16.196 32.2185C20.1335 32.2185 24.0709 32.2185 28.0109 32.2185C28.3796 32.2185 28.7483 32.2185 29.1169 32.206C29.8217 32.1859 30.4687 31.9828 31.038 31.559C31.181 31.4536 31.3164 31.3357 31.4669 31.5188C31.6073 31.6869 31.507 31.8323 31.3791 31.9552C31.1208 32.2035 30.8098 32.369 30.4737 32.4819C29.9621 32.6549 29.4405 32.7477 28.8962 32.7477C25.9293 32.7402 22.9649 32.7452 19.998 32.7452V32.7402L19.9955 32.7302Z" fill="#F9F5EC"/>
<path id="Vector_14" d="M38.0669 25.1705C40.9836 25.1705 43.8979 25.1755 46.8146 25.1705C48.2291 25.168 49.3552 25.7197 50.1376 26.901C51.191 28.4935 50.8675 30.5952 49.4003 31.8517C47.9708 33.073 45.8566 33.0229 44.4296 31.7639C43.2232 30.7005 42.7216 28.7393 43.6747 27.0891C43.6922 27.059 43.6997 27.0264 43.7223 27.0013C43.8377 26.8583 43.9581 26.6727 44.1712 26.8132C44.3468 26.9285 44.2966 27.1041 44.2013 27.2596C44.0333 27.533 43.9029 27.8239 43.8151 28.1299C43.1906 30.3318 45.1844 32.5238 47.4516 32.1702C48.979 31.9319 50.3032 30.5325 50.2154 28.7995C50.1326 27.1367 48.8285 25.8351 47.1356 25.7122C46.9852 25.7022 46.8347 25.6997 46.6842 25.6997C40.9535 25.6997 35.2229 25.7022 29.4922 25.6997C28.5668 25.6997 27.6915 25.8551 26.919 26.3994C26.8639 26.437 26.8062 26.4746 26.7435 26.4947C26.6131 26.5398 26.5153 26.4821 26.445 26.3743C26.3823 26.2765 26.3974 26.1787 26.4776 26.1009C26.6582 25.9254 26.8588 25.7774 27.0871 25.662C27.7592 25.326 28.4715 25.168 29.2213 25.168C32.1707 25.168 35.12 25.168 38.0694 25.168V25.1755L38.0669 25.1705Z" fill="#F9F5EC"/>
</g>
<circle id="Ellipse 780" cx="29.0923" cy="11.2876" r="2.00636" fill="#F9F5EC"/>
<circle id="Ellipse 781" cx="29.0923" cy="28.8423" r="2.00636" fill="#F9F5EC"/>
<circle id="Ellipse 782" cx="29.0923" cy="46.3969" r="2.00636" fill="#F9F5EC"/>
<circle id="Ellipse 783" cx="46.647" cy="28.8423" r="2.00636" fill="#F9F5EC"/>
<circle id="Ellipse 784" cx="11.2876" cy="28.8423" r="2.00636" fill="#F9F5EC"/>
</g>
</g>
</svg>
